<svg xmlns="http://www.w3.org/2000/svg" width="32" height="32" class="icon" viewBox="0 0 1024 1024"><path fill="#386bf3" d="M938.68 648.703c-8.285-8.285-16.57-8.285-24.855-8.285-33.14 4.143-62.138 4.143-95.278-8.285-12.428-4.142-24.855-8.285-37.283-16.57q24.855-31.07 37.283-74.565c12.427-37.283 16.57-78.708 16.57-120.133 0-16.57-16.57-33.14-33.14-28.998-12.428 0-20.713 8.285-24.856 16.57l-4.142 4.142-4.143 4.143c-12.427 12.428-33.14 24.855-49.71 28.998-12.427 4.142-28.998 4.142-41.425 0v-4.143c-4.143-28.998-8.285-62.138-24.855-95.278-8.285-16.57-16.57-28.998-24.855-41.425-8.285-12.428-20.713-24.855-33.14-37.283-24.856-24.855-57.996-45.568-91.136-62.138-16.57-8.285-37.283-12.427-53.853-16.57-24.855-8.285-45.568-8.285-62.138-8.285-20.712 0-37.282 0-57.995 4.143s-37.283 8.285-53.853 16.57c-20.712 8.285-37.282 16.57-49.71 28.997l-165.7 16.57c-12.429 0-20.714 8.286-16.571 16.57v4.143L101.89 429.15c-4.142 12.427-4.142 24.855-4.142 37.282 0 12.428 0 24.855 4.142 33.14 0 12.428 4.143 20.713 4.143 33.14 33.14 132.561 136.703 236.124 265.121 289.977 99.42 41.425 215.411 49.71 323.117 24.855 28.998-8.285 57.995-16.57 82.85-28.997 33.14-16.57 62.138-33.14 86.993-53.853 28.998-20.713 53.853-45.568 74.566-70.423 16.57-12.428 12.427-33.14 0-45.568M284.16 491.287c-41.425 0-78.708-33.14-78.708-78.708s33.14-78.707 78.708-78.707 78.708 33.14 78.708 78.707-33.14 78.708-78.708 78.708" class="selected" data-spm-anchor-id="a313x.search_index.0.i6.53e33a812EuqCR"/></svg>