<svg t="1723101992698" class="icon" viewBox="0 0 1024 1024" version="1.1" xmlns="http://www.w3.org/2000/svg"
  p-id="10887" width="32" height="32">
  <path
    d="M938.6798139164446 648.7032414814814c-8.285045342814815-8.285045342814815-16.570089472-8.285045342814815-24.85513481481481-8.285045342814815-33.14018015762963 4.142522064592593-62.13783703703704 4.142522064592593-95.27801719466666-8.285045342814815-12.427567407407405-4.142522064592593-24.85513481481481-8.285045342814815-37.28270222222223-16.570089472 16.570089472-20.712612750222217 28.9976568794074-45.56774756503704 37.28270222222223-74.56540444444445 12.427567407407405-37.28270222222223 16.570089472-78.70792650903704 16.570089472-120.13315200948148 0-16.570089472-16.570089472-33.14018015762963-33.14018015762963-28.9976568794074-12.427567407407405 0-20.712612750222217 8.285045342814815-24.85513481481481 16.570089472l-4.142522064592593 4.142522064592593 0 0-4.142522064592593 4.142522064592593 0 0c-12.427567407407405 12.427567407407405-33.14018015762963 24.85513481481481-49.71026962962962 28.9976568794074-12.427567407407405 4.142522064592593-28.9976568794074 4.142522064592593-41.42522428681481 0l0-4.142522064592593c-4.142522064592593-28.9976568794074-8.285045342814815-62.13783703703704-24.85513481481481-95.27801719466666-8.285045342814815-16.570089472-16.570089472-28.9976568794074-24.85513481481481-41.42522428681481-8.285045342814815-12.427567407407405-20.712612750222217-24.85513481481481-33.14018015762963-37.28270222222223-24.85513481481481-24.85513481481481-57.99531497244444-45.56774756503704-91.13549391644443-62.13783703703704-16.570089472-8.285045342814815-37.28270222222223-12.427567407407405-53.852791694222226-16.570089472C425.0070281481482 180.5982020645926 404.2944153979259 180.5982020645926 387.72432592592594 180.5982020645926c-20.712612750222217 0-37.28270222222223 0-57.99531497244444 4.142522064592593-20.712612750222217 4.142522064592593-37.28270222222223 8.285045342814815-53.852791694222226 16.570089472l0 0C255.16360650903698 209.5958601576296 238.59351703703703 217.88090428681483 226.16594962962967 230.3084716942222l0 0-165.70089836088889 16.570089472C48.037483861333385 246.87856237985193 39.752438518518545 255.16360650903698 43.89496058311113 263.44865185185176c0 4.142522064592593 0 4.142522064592593 0 4.142522064592593L101.8902755555556 429.14955021274073C97.74775349096291 441.57711762014816 97.74775349096291 454.0046850275556 97.74775349096291 466.43225243496295c0 12.427567407407405 0 24.85513481481481 4.142522064592593 33.14018015762963 0 12.427567407407405 4.142522064592593 20.712612750222217 4.142522064592593 33.14018015762963 33.14018015762963 132.5607194168889 136.70324148148148 236.12378074074073 265.12143762014813 289.9765724349629 99.42053925925924 41.42522428681481 215.41116799051855 49.71026962962962 323.11675259259255 24.85513481481481 28.9976568794074-8.285045342814815 57.99531497244444-16.570089472 82.85044978725927-28.9976568794074 33.14018015762963-16.570089472 62.13783703703704-33.14018015762963 86.99297185185185-53.852791694222226 28.9976568794074-20.712612750222217 53.852791694222226-45.56774756503704 74.56540444444445-70.42288237985186C955.2499046020741 681.843421639111 951.1073813238518 661.130808888889 938.6798139164446 648.7032414814814zM284.161264602074 491.2873872497778c-41.42522428681481 0-78.70792650903704-33.14018015762963-78.70792650903704-78.70792650903704s33.14018015762963-78.70792650903704 78.70792650903704-78.70792650903704 78.70792650903704 33.14018015762963 78.70792650903704 78.70792650903704S329.7290109534815 491.2873872497778 284.161264602074 491.2873872497778z"
    fill="#386bf3" p-id="10888" data-spm-anchor-id="a313x.search_index.0.i6.53e33a812EuqCR" class="selected"></path>
</svg>
