<?xml version="1.0" encoding="UTF-8"?>
<svg xmlns="http://www.w3.org/2000/svg" xmlns:xlink="http://www.w3.org/1999/xlink" width="500px" height="500px"
  viewBox="0 0 500 500" version="1.1">
  <defs>
    <filter id="alpha" filterUnits="objectBoundingBox" x="0%" y="0%" width="100%" height="100%">
      <feColorMatrix type="matrix" in="SourceGraphic" values="0 0 0 0 1 0 0 0 0 1 0 0 0 0 1 0 0 0 1 0" />
    </filter>
    <mask id="mask0">
      <g filter="url(#alpha)">
        <rect x="0" y="0" width="500" height="500" style="fill:rgb(0%,0%,0%);fill-opacity:0.501961;stroke:none;" />
      </g>
    </mask>
    <clipPath id="clip1">
      <rect x="0" y="0" width="500" height="500" />
    </clipPath>
    <g id="surface5" clip-path="url(#clip1)">
      <path style=" stroke:none;fill-rule:nonzero;fill:rgb(14.901961%,19.607843%,21.960784%);fill-opacity:1;"
        d="M 167.789062 316.238281 L 202.308594 316.238281 C 199.308594 309.699219 193.839844 305.691406 187.929688 305.691406 L 175.710938 305.691406 C 169.808594 305.691406 166.878906 309.101562 167.789062 316.238281 Z M 167.789062 316.238281 " />
    </g>
    <mask id="mask1">
      <g filter="url(#alpha)">
        <rect x="0" y="0" width="500" height="500" style="fill:rgb(0%,0%,0%);fill-opacity:0.701961;stroke:none;" />
      </g>
    </mask>
    <clipPath id="clip2">
      <rect x="0" y="0" width="500" height="500" />
    </clipPath>
    <g id="surface8" clip-path="url(#clip2)">
      <path style=" stroke:none;fill-rule:nonzero;fill:rgb(100%,100%,100%);fill-opacity:1;"
        d="M 228.589844 407.5 L 221.109375 407.5 L 221.109375 316.238281 L 212.898438 316.238281 L 212.898438 407.5 L 205.421875 407.5 L 197.359375 414.960938 L 236.648438 414.960938 Z M 228.589844 407.5 " />
    </g>
    <mask id="mask2">
      <g filter="url(#alpha)">
        <rect x="0" y="0" width="500" height="500" style="fill:rgb(0%,0%,0%);fill-opacity:0.501961;stroke:none;" />
      </g>
    </mask>
    <clipPath id="clip3">
      <rect x="0" y="0" width="500" height="500" />
    </clipPath>
    <g id="surface11" clip-path="url(#clip3)">
      <path style=" stroke:none;fill-rule:nonzero;fill:rgb(25.098039%,48.235294%,100%);fill-opacity:1;"
        d="M 212.898438 316.238281 L 221.109375 316.238281 L 221.109375 319.300781 L 212.898438 319.300781 Z M 212.898438 316.238281 " />
    </g>
    <mask id="mask3">
      <g filter="url(#alpha)">
        <rect x="0" y="0" width="500" height="500" style="fill:rgb(0%,0%,0%);fill-opacity:0.2;stroke:none;" />
      </g>
    </mask>
    <clipPath id="clip4">
      <rect x="0" y="0" width="500" height="500" />
    </clipPath>
    <g id="surface14" clip-path="url(#clip4)">
      <path style=" stroke:none;fill-rule:nonzero;fill:rgb(0%,0%,0%);fill-opacity:1;"
        d="M 272.578125 383.441406 L 281.558594 381.171875 L 282.578125 391.53125 L 273.570312 393.488281 Z M 272.578125 383.441406 " />
    </g>
    <mask id="mask4">
      <g filter="url(#alpha)">
        <rect x="0" y="0" width="500" height="500" style="fill:rgb(0%,0%,0%);fill-opacity:0.301961;stroke:none;" />
      </g>
    </mask>
    <clipPath id="clip5">
      <rect x="0" y="0" width="500" height="500" />
    </clipPath>
    <g id="surface17" clip-path="url(#clip5)">
      <path style=" stroke:none;fill-rule:nonzero;fill:rgb(0%,0%,0%);fill-opacity:1;"
        d="M 241.25 283.710938 C 241.25 283.710938 239.25 298.871094 246.160156 310.558594 C 249.890625 310.945312 253.589844 311.613281 257.21875 312.558594 C 257.214844 315.449219 257.367188 318.335938 257.679688 321.210938 C 268.800781 304.621094 259.699219 285.800781 241.25 283.710938 Z M 241.25 283.710938 " />
    </g>
    <mask id="mask5">
      <g filter="url(#alpha)">
        <rect x="0" y="0" width="500" height="500" style="fill:rgb(0%,0%,0%);fill-opacity:0.2;stroke:none;" />
      </g>
    </mask>
    <clipPath id="clip6">
      <rect x="0" y="0" width="500" height="500" />
    </clipPath>
    <g id="surface20" clip-path="url(#clip6)">
      <path style=" stroke:none;fill-rule:nonzero;fill:rgb(0%,0%,0%);fill-opacity:1;"
        d="M 237.421875 385.171875 L 246.589844 384 L 245.730469 396.449219 L 236.589844 397.160156 Z M 237.421875 385.171875 " />
    </g>
    <mask id="mask6">
      <g filter="url(#alpha)">
        <rect x="0" y="0" width="500" height="500" style="fill:rgb(0%,0%,0%);fill-opacity:0.301961;stroke:none;" />
      </g>
    </mask>
    <clipPath id="clip7">
      <rect x="0" y="0" width="500" height="500" />
    </clipPath>
    <g id="surface23" clip-path="url(#clip7)">
      <path style=" stroke:none;fill-rule:nonzero;fill:rgb(0%,0%,0%);fill-opacity:1;"
        d="M 213 222.558594 C 211.460938 221.179688 207.101562 227.371094 204.429688 235.039062 C 205.191406 237.898438 206.050781 240.71875 206.921875 243.339844 L 219.851562 240.660156 C 218.808594 233 216.429688 225.671875 213 222.558594 Z M 213 222.558594 " />
    </g>
    <mask id="mask7">
      <g filter="url(#alpha)">
        <rect x="0" y="0" width="500" height="500" style="fill:rgb(0%,0%,0%);fill-opacity:0.301961;stroke:none;" />
      </g>
    </mask>
    <clipPath id="clip8">
      <rect x="0" y="0" width="500" height="500" />
    </clipPath>
    <g id="surface26" clip-path="url(#clip8)">
      <path style=" stroke:none;fill-rule:nonzero;fill:rgb(0%,0%,0%);fill-opacity:1;"
        d="M 172.578125 210.671875 C 170.671875 217.671875 168.949219 226.238281 167.578125 233.808594 C 166.351562 241.539062 165.539062 249.324219 165.148438 257.140625 C 173.300781 256.328125 182.300781 246.949219 185.148438 234.320312 C 188 222 181.390625 209.179688 172.578125 210.671875 Z M 172.578125 210.671875 " />
    </g>
    <mask id="mask8">
      <g filter="url(#alpha)">
        <rect x="0" y="0" width="500" height="500" style="fill:rgb(0%,0%,0%);fill-opacity:0.2;stroke:none;" />
      </g>
    </mask>
    <clipPath id="clip9">
      <rect x="0" y="0" width="500" height="500" />
    </clipPath>
    <g id="surface29" clip-path="url(#clip9)">
      <path style=" stroke:none;fill-rule:nonzero;fill:rgb(0%,0%,0%);fill-opacity:1;"
        d="M 208.78125 195.300781 L 205.441406 189.359375 L 205.210938 189.851562 C 204.914062 190.589844 204.671875 191.351562 204.488281 192.128906 C 203.878906 194.761719 205.929688 198.53125 208.179688 200.320312 L 208.441406 199.808594 C 208.839844 198.953125 209.355469 198.160156 209.980469 197.449219 C 210.023438 197.40625 210.070312 197.371094 210.121094 197.339844 Z M 208.78125 195.300781 " />
    </g>
    <mask id="mask9">
      <g filter="url(#alpha)">
        <rect x="0" y="0" width="500" height="500" style="fill:rgb(0%,0%,0%);fill-opacity:0.301961;stroke:none;" />
      </g>
    </mask>
    <clipPath id="clip10">
      <rect x="0" y="0" width="500" height="500" />
    </clipPath>
    <g id="surface32" clip-path="url(#clip10)">
      <path style=" stroke:none;fill-rule:nonzero;fill:rgb(0%,0%,0%);fill-opacity:1;"
        d="M 196.328125 172.898438 C 195.871094 169.867188 196.726562 166.785156 198.679688 164.421875 C 197.859375 164.609375 195.289062 163.101562 200.019531 159.941406 C 204.75 156.78125 214.570312 155.941406 219.460938 158.351562 C 229.039062 163.050781 226.390625 168.609375 226.390625 168.609375 Z M 196.328125 172.898438 " />
    </g>
    <mask id="mask10">
      <g filter="url(#alpha)">
        <rect x="0" y="0" width="500" height="500" style="fill:rgb(0%,0%,0%);fill-opacity:0.6;stroke:none;" />
      </g>
    </mask>
    <clipPath id="clip11">
      <rect x="0" y="0" width="500" height="500" />
    </clipPath>
    <g id="surface35" clip-path="url(#clip11)">
      <path style=" stroke:none;fill-rule:nonzero;fill:rgb(100%,100%,100%);fill-opacity:1;"
        d="M 148.671875 274.679688 L 356.289062 274.679688 L 356.289062 281.441406 L 148.671875 281.441406 Z M 148.671875 274.679688 " />
    </g>
    <mask id="mask11">
      <g filter="url(#alpha)">
        <rect x="0" y="0" width="500" height="500" style="fill:rgb(0%,0%,0%);fill-opacity:0.501961;stroke:none;" />
      </g>
    </mask>
    <clipPath id="clip12">
      <rect x="0" y="0" width="500" height="500" />
    </clipPath>
    <g id="surface38" clip-path="url(#clip12)">
      <path style=" stroke:none;fill-rule:nonzero;fill:rgb(25.098039%,48.235294%,100%);fill-opacity:1;"
        d="M 190.089844 281.441406 L 148.660156 281.441406 L 148.660156 274.679688 L 190.089844 274.679688 Z M 190.089844 281.441406 " />
    </g>
    <mask id="mask12">
      <g filter="url(#alpha)">
        <rect x="0" y="0" width="500" height="500" style="fill:rgb(0%,0%,0%);fill-opacity:0.2;stroke:none;" />
      </g>
    </mask>
    <clipPath id="clip13">
      <rect x="0" y="0" width="500" height="500" />
    </clipPath>
    <g id="surface41" clip-path="url(#clip13)">
      <path style=" stroke:none;fill-rule:nonzero;fill:rgb(0%,0%,0%);fill-opacity:1;"
        d="M 244.269531 228.148438 L 233.269531 269.390625 C 233.140625 269.738281 233.195312 270.125 233.414062 270.425781 C 233.636719 270.722656 233.992188 270.890625 234.359375 270.871094 L 246.121094 226.671875 C 245.253906 226.726562 244.515625 227.316406 244.269531 228.148438 Z M 244.269531 228.148438 " />
    </g>
    <mask id="mask13">
      <g filter="url(#alpha)">
        <rect x="0" y="0" width="500" height="500" style="fill:rgb(0%,0%,0%);fill-opacity:0.2;stroke:none;" />
      </g>
    </mask>
    <clipPath id="clip14">
      <rect x="0" y="0" width="500" height="500" />
    </clipPath>
    <g id="surface44" clip-path="url(#clip14)">
      <path style=" stroke:none;fill-rule:nonzero;fill:rgb(0%,0%,0%);fill-opacity:1;"
        d="M 230.78125 272.441406 L 202.230469 272.441406 C 200.996094 272.445312 199.996094 273.445312 199.988281 274.679688 L 232.988281 274.679688 C 232.984375 273.457031 232.003906 272.460938 230.78125 272.441406 Z M 230.78125 272.441406 " />
    </g>
    <mask id="mask14">
      <g filter="url(#alpha)">
        <rect x="0" y="0" width="500" height="500" style="fill:rgb(0%,0%,0%);fill-opacity:0.901961;stroke:none;" />
      </g>
    </mask>
    <clipPath id="clip15">
      <rect x="0" y="0" width="500" height="500" />
    </clipPath>
    <g id="surface47" clip-path="url(#clip15)">
      <path style=" stroke:none;fill-rule:nonzero;fill:rgb(14.901961%,19.607843%,21.960784%);fill-opacity:1;"
        d="M 266.601562 218.941406 C 266.230469 218.945312 265.875 218.792969 265.628906 218.519531 C 265.378906 218.246094 265.261719 217.878906 265.300781 217.511719 L 269.410156 171.269531 C 269.496094 170.46875 270.164062 169.855469 270.96875 169.839844 L 327.25 169.839844 C 327.621094 169.835938 327.972656 169.988281 328.222656 170.261719 C 328.472656 170.535156 328.589844 170.902344 328.550781 171.269531 L 324.441406 217.511719 C 324.355469 218.3125 323.6875 218.925781 322.878906 218.941406 Z M 266.601562 218.941406 " />
    </g>
  </defs>
  <g id="surface1">
    <path style=" stroke:none;fill-rule:nonzero;fill:rgb(96.078431%,96.078431%,96.078431%);fill-opacity:1;"
      d="M 443.890625 416.238281 C 443.890625 409.988281 357.082031 404.921875 250 404.921875 C 142.917969 404.921875 56.109375 409.988281 56.109375 416.238281 C 56.109375 422.492188 142.917969 427.558594 250 427.558594 C 357.082031 427.558594 443.890625 422.492188 443.890625 416.238281 Z M 443.890625 416.238281 " />
    <path style=" stroke:none;fill-rule:nonzero;fill:rgb(25.098039%,48.235294%,100%);fill-opacity:1;"
      d="M 182.308594 316.238281 L 268.5 316.238281 C 265.5 309.699219 260.03125 305.691406 254.128906 305.691406 L 187.128906 305.691406 Z M 182.308594 316.238281 " />
    <path style=" stroke:none;fill-rule:nonzero;fill:rgb(25.098039%,48.235294%,100%);fill-opacity:1;"
      d="M 167.789062 316.238281 L 202.308594 316.238281 C 199.308594 309.699219 193.839844 305.691406 187.929688 305.691406 L 175.710938 305.691406 C 169.808594 305.691406 166.878906 309.101562 167.789062 316.238281 Z M 167.789062 316.238281 " />
    <use xlink:href="#surface5" mask="url(#mask0)" />
    <path style=" stroke:none;fill-rule:nonzero;fill:rgb(25.098039%,48.235294%,100%);fill-opacity:1;"
      d="M 228.589844 407.5 L 221.109375 407.5 L 221.109375 316.238281 L 212.898438 316.238281 L 212.898438 407.5 L 205.421875 407.5 L 197.359375 414.960938 L 236.648438 414.960938 Z M 228.589844 407.5 " />
    <use xlink:href="#surface8" mask="url(#mask1)" />
    <use xlink:href="#surface11" mask="url(#mask2)" />
    <path style=" stroke:none;fill-rule:nonzero;fill:rgb(70.980392%,35.686275%,32.156863%);fill-opacity:1;"
      d="M 274.710938 404.949219 L 283.679688 402.679688 L 281.550781 381.160156 L 272.578125 383.429688 Z M 274.710938 404.949219 " />
    <path style=" stroke:none;fill-rule:nonzero;fill:rgb(14.901961%,19.607843%,21.960784%);fill-opacity:1;"
      d="M 284.070312 398.710938 L 273.769531 400 C 273.59375 400.015625 273.433594 400.101562 273.320312 400.234375 C 273.207031 400.371094 273.152344 400.542969 273.171875 400.71875 L 273.71875 408.929688 C 273.835938 409.824219 274.648438 410.457031 275.539062 410.351562 C 279.109375 409.828125 280.539062 409.441406 285.058594 408.53125 C 289.445312 407.695312 293.78125 406.636719 298.058594 405.359375 C 301.648438 404.148438 300.398438 400.519531 298.730469 400.71875 C 294.78125 401.191406 288.558594 400.71875 285.730469 399.03125 C 285.226562 398.746094 284.644531 398.632812 284.070312 398.710938 Z M 284.070312 398.710938 " />
    <use xlink:href="#surface14" mask="url(#mask3)" />
    <path style=" stroke:none;fill-rule:nonzero;fill:rgb(14.901961%,19.607843%,21.960784%);fill-opacity:1;"
      d="M 214 275.539062 C 214 275.539062 280.46875 273.308594 280.691406 299.820312 C 281 337.910156 285.140625 385.199219 285.140625 385.199219 L 268.398438 387.679688 C 268.398438 387.679688 257 342.289062 257.210938 312.550781 C 238.519531 307.269531 189.980469 310.710938 184.261719 295.21875 C 179.589844 282.539062 182.03125 275.539062 182.03125 275.539062 Z M 214 275.539062 " />
    <use xlink:href="#surface17" mask="url(#mask4)" />
    <path style=" stroke:none;fill-rule:nonzero;fill:rgb(25.098039%,48.235294%,100%);fill-opacity:1;"
      d="M 267.101562 392.078125 L 286.488281 388.429688 L 286.808594 380.910156 L 265.289062 384.699219 Z M 267.101562 392.078125 " />
    <path style=" stroke:none;fill-rule:nonzero;fill:rgb(25.098039%,48.235294%,100%);fill-opacity:1;"
      d="M 287.519531 399.890625 C 286.695312 399.980469 285.863281 399.980469 285.039062 399.890625 C 284.953125 399.878906 284.878906 399.820312 284.851562 399.738281 C 284.828125 399.660156 284.851562 399.578125 284.910156 399.519531 C 285.179688 399.28125 287.550781 397.171875 288.71875 397.460938 C 288.992188 397.535156 289.207031 397.734375 289.300781 398 C 289.476562 398.390625 289.433594 398.851562 289.179688 399.199219 C 288.730469 399.625 288.140625 399.871094 287.519531 399.890625 Z M 285.578125 399.488281 C 287.269531 399.609375 288.46875 399.398438 288.839844 398.921875 C 288.996094 398.6875 289.015625 398.390625 288.890625 398.140625 C 288.855469 398.007812 288.753906 397.902344 288.621094 397.871094 C 288 397.710938 286.558594 398.679688 285.578125 399.488281 Z M 285.578125 399.488281 " />
    <path style=" stroke:none;fill-rule:nonzero;fill:rgb(25.098039%,48.235294%,100%);fill-opacity:1;"
      d="M 285.089844 399.878906 L 285 399.878906 C 284.933594 399.851562 284.882812 399.792969 284.871094 399.71875 C 284.871094 399.609375 284.300781 397 285.109375 395.988281 C 285.320312 395.722656 285.640625 395.570312 285.980469 395.570312 C 286.355469 395.539062 286.703125 395.765625 286.828125 396.121094 C 287.171875 397.121094 286.050781 399.179688 285.210938 399.851562 Z M 285.859375 396 C 285.6875 396.023438 285.527344 396.113281 285.421875 396.25 C 284.941406 396.851562 285.058594 398.371094 285.199219 399.25 C 285.910156 398.46875 286.628906 396.898438 286.410156 396.25 C 286.359375 396.128906 286.269531 395.988281 285.960938 395.988281 Z M 285.859375 396 " />
    <path style=" stroke:none;fill-rule:nonzero;fill:rgb(70.980392%,35.686275%,32.156863%);fill-opacity:1;"
      d="M 235.921875 406.929688 L 245.089844 405.761719 L 246.589844 384 L 237.421875 385.160156 Z M 235.921875 406.929688 " />
    <path style=" stroke:none;fill-rule:nonzero;fill:rgb(14.901961%,19.607843%,21.960784%);fill-opacity:1;"
      d="M 245.300781 404.5 L 234.921875 404.171875 C 234.558594 404.148438 234.242188 404.417969 234.210938 404.78125 L 233.449219 412.980469 C 233.421875 413.878906 234.121094 414.632812 235.019531 414.671875 C 238.628906 414.71875 240.359375 414.558594 244.929688 414.671875 C 247.738281 414.761719 253.261719 415.171875 257.109375 414.671875 C 260.960938 414.171875 260.371094 410.390625 258.699219 410.25 C 254.699219 409.929688 249.410156 407.191406 246.871094 405.058594 C 246.421875 404.707031 245.871094 404.507812 245.300781 404.5 Z M 245.300781 404.5 " />
    <path style=" stroke:none;fill-rule:nonzero;fill:rgb(25.098039%,48.235294%,100%);fill-opacity:1;"
      d="M 248.519531 406.210938 C 247.691406 406.167969 246.867188 406.03125 246.070312 405.800781 C 245.988281 405.777344 245.929688 405.710938 245.910156 405.628906 C 245.902344 405.546875 245.9375 405.464844 246.011719 405.421875 C 246.308594 405.21875 249.011719 403.519531 250.101562 403.988281 C 250.355469 404.105469 250.535156 404.34375 250.578125 404.621094 C 250.695312 405.035156 250.574219 405.476562 250.269531 405.78125 C 249.757812 406.132812 249.136719 406.289062 248.519531 406.210938 Z M 246.671875 405.511719 C 248.308594 405.890625 249.53125 405.878906 249.980469 405.460938 C 250.171875 405.257812 250.238281 404.964844 250.148438 404.699219 C 250.136719 404.566406 250.054688 404.445312 249.929688 404.390625 C 249.328125 404.128906 247.769531 404.859375 246.671875 405.511719 Z M 246.671875 405.511719 " />
    <path style=" stroke:none;fill-rule:nonzero;fill:rgb(25.098039%,48.235294%,100%);fill-opacity:1;"
      d="M 246.121094 405.808594 C 246.085938 405.820312 246.054688 405.820312 246.019531 405.808594 C 245.957031 405.777344 245.914062 405.710938 245.910156 405.640625 C 245.910156 405.519531 245.78125 402.859375 246.738281 401.988281 C 246.988281 401.765625 247.328125 401.664062 247.660156 401.71875 C 248.042969 401.738281 248.359375 402.023438 248.421875 402.398438 C 248.609375 403.398438 247.171875 405.300781 246.230469 405.808594 C 246.195312 405.820312 246.15625 405.820312 246.121094 405.808594 Z M 247.5 402.109375 C 247.328125 402.101562 247.15625 402.160156 247.03125 402.28125 C 246.460938 402.800781 246.328125 404.28125 246.328125 405.199219 C 247.160156 404.539062 248.121094 403.109375 248 402.441406 C 248 402.320312 247.910156 402.160156 247.601562 402.121094 Z M 247.5 402.109375 " />
    <use xlink:href="#surface20" mask="url(#mask5)" />
    <path style=" stroke:none;fill-rule:nonzero;fill:rgb(14.901961%,19.607843%,21.960784%);fill-opacity:1;"
      d="M 191.390625 275.539062 C 191.390625 275.539062 257.761719 281.820312 255.390625 301.800781 C 251.898438 330.609375 250.179688 392.710938 250.179688 392.710938 L 233.261719 393.378906 C 233.261719 393.378906 226.089844 337.378906 229.800781 307.859375 C 212.628906 307.859375 170.578125 309.089844 166.738281 298.738281 C 163.359375 289.601562 164.570312 275.539062 164.570312 275.539062 Z M 191.390625 275.539062 " />
    <path style=" stroke:none;fill-rule:nonzero;fill:rgb(25.098039%,48.235294%,100%);fill-opacity:1;"
      d="M 231.351562 394.421875 L 251.660156 393.410156 L 252.390625 384.578125 L 230.121094 386.109375 Z M 231.351562 394.421875 " />
    <path style=" stroke:none;fill-rule:nonzero;fill:rgb(70.980392%,35.686275%,32.156863%);fill-opacity:1;"
      d="M 220.078125 215.828125 L 220.648438 220.429688 C 220.851562 221.988281 221.070312 223.550781 221.308594 225.101562 C 221.808594 228.210938 222.308594 231.308594 222.941406 234.351562 C 223.570312 237.390625 224.25 240.351562 225.070312 243.25 C 225.816406 245.957031 226.820312 248.585938 228.070312 251.101562 C 228.542969 252.050781 229.125 252.941406 229.800781 253.761719 C 229.898438 253.878906 230.109375 254.078125 230.320312 254.28125 C 230.53125 254.480469 230.75 254.679688 230.96875 254.878906 C 231.429688 255.269531 231.96875 255.671875 232.480469 256.058594 C 234.859375 257.710938 237.382812 259.136719 240.019531 260.328125 C 245.734375 262.886719 251.589844 265.113281 257.558594 267 L 256.480469 273.859375 C 253.054688 273.746094 249.640625 273.410156 246.261719 272.859375 C 244.578125 272.601562 242.890625 272.28125 241.261719 271.859375 C 239.628906 271.441406 237.878906 271.058594 236.199219 270.550781 C 232.65625 269.554688 229.238281 268.167969 226 266.421875 C 225.125 265.9375 224.273438 265.410156 223.449219 264.839844 C 223.03125 264.539062 222.609375 264.25 222.191406 263.898438 C 221.734375 263.554688 221.296875 263.183594 220.878906 262.789062 C 219.285156 261.246094 217.902344 259.503906 216.761719 257.601562 C 214.867188 254.367188 213.316406 250.945312 212.140625 247.390625 C 211.015625 244.082031 210.066406 240.714844 209.289062 237.308594 C 208.53125 233.960938 207.859375 230.609375 207.371094 227.25 C 207.109375 225.570312 206.878906 223.890625 206.660156 222.25 C 206.441406 220.609375 206.28125 218.921875 206.140625 217.089844 Z M 220.078125 215.828125 " />
    <path style=" stroke:none;fill-rule:nonzero;fill:rgb(25.098039%,48.235294%,100%);fill-opacity:1;"
      d="M 206.058594 209.148438 C 212.851562 202.601562 221.210938 206.46875 224.550781 218.75 C 226.441406 225.332031 227.734375 232.074219 228.410156 238.890625 L 206.921875 243.328125 C 203 231.609375 199.121094 215.871094 206.058594 209.148438 Z M 206.058594 209.148438 " />
    <use xlink:href="#surface23" mask="url(#mask6)" />
    <path style=" stroke:none;fill-rule:nonzero;fill:rgb(70.980392%,35.686275%,32.156863%);fill-opacity:1;"
      d="M 256.238281 265.25 L 261.359375 265.570312 L 257.269531 274.96875 C 257.269531 274.96875 248.441406 274.761719 248.628906 270.421875 L 250.21875 268.339844 C 251.699219 266.503906 253.886719 265.378906 256.238281 265.25 Z M 256.238281 265.25 " />
    <path style=" stroke:none;fill-rule:nonzero;fill:rgb(70.980392%,35.686275%,32.156863%);fill-opacity:1;"
      d="M 266.941406 266.328125 L 262.519531 274.96875 L 257.269531 274.96875 L 261.359375 265.570312 Z M 266.941406 266.328125 " />
    <path style=" stroke:none;fill-rule:nonzero;fill:rgb(25.098039%,48.235294%,100%);fill-opacity:1;"
      d="M 206.859375 202.578125 L 196.558594 199.640625 L 183.320312 199 C 179.191406 198.808594 175.441406 201.398438 174.160156 205.328125 C 171.628906 213.03125 169.308594 224.179688 167.621094 233.800781 C 165.71875 244.578125 164.730469 260.800781 164.53125 275.53125 L 214 275.53125 C 215.128906 244.800781 219 226.628906 220.769531 216.53125 C 221.46875 212.484375 219.386719 208.464844 215.679688 206.699219 Z M 206.859375 202.578125 " />
    <use xlink:href="#surface26" mask="url(#mask7)" />
    <path style=" stroke:none;fill-rule:nonzero;fill:rgb(70.980392%,35.686275%,32.156863%);fill-opacity:1;"
      d="M 200.671875 182.910156 L 204.671875 189.019531 L 210.121094 197.351562 C 209.414062 198.0625 208.84375 198.894531 208.441406 199.808594 C 207.441406 201.808594 206.621094 203.320312 210.828125 206.191406 C 211.757812 206.78125 212.253906 207.863281 212.089844 208.949219 C 211.851562 210.25 210.550781 211.511719 206 210.710938 C 201.621094 209.867188 197.628906 207.652344 194.601562 204.378906 C 193.078125 202.871094 193.429688 201.730469 194.890625 200.160156 C 199 195.71875 200.261719 188.628906 200.671875 182.910156 Z M 200.671875 182.910156 " />
    <use xlink:href="#surface29" mask="url(#mask8)" />
    <path style=" stroke:none;fill-rule:nonzero;fill:rgb(14.901961%,19.607843%,21.960784%);fill-opacity:1;"
      d="M 207.25 218.820312 C 207.117188 218.804688 207.011719 218.699219 206.992188 218.566406 C 206.976562 218.433594 207.054688 218.308594 207.179688 218.261719 L 207.890625 218.089844 C 211.511719 217.300781 219.988281 215.449219 219.21875 182.910156 C 219.21875 182.753906 219.34375 182.625 219.5 182.621094 C 219.65625 182.621094 219.785156 182.742188 219.789062 182.898438 C 220.570312 215.898438 211.789062 217.828125 208.011719 218.648438 C 207.761719 218.648438 207.53125 218.75 207.328125 218.808594 Z M 207.25 218.820312 " />
    <path style=" stroke:none;fill-rule:nonzero;fill:rgb(14.901961%,19.607843%,21.960784%);fill-opacity:1;"
      d="M 227.570312 173.851562 C 226.109375 169.488281 220.871094 172.390625 220.871094 172.390625 C 220.871094 172.390625 220.800781 181.519531 223.609375 183.859375 C 226.421875 186.199219 229 178.25 227.570312 173.851562 Z M 227.570312 173.851562 " />
    <path style=" stroke:none;fill-rule:nonzero;fill:rgb(70.980392%,35.686275%,32.156863%);fill-opacity:1;"
      d="M 202.078125 172.089844 C 200.46875 181.148438 199.078125 186.351562 202.429688 192.160156 C 204.628906 196.003906 208.765625 198.324219 213.191406 198.199219 C 217.621094 198.070312 221.617188 195.515625 223.589844 191.550781 C 227.421875 184.078125 229.398438 170.550781 221.589844 164.550781 C 218.226562 161.859375 213.683594 161.15625 209.667969 162.710938 C 205.648438 164.261719 202.757812 167.835938 202.078125 172.089844 Z M 202.078125 172.089844 " />
    <path style=" stroke:none;fill-rule:nonzero;fill:rgb(14.901961%,19.607843%,21.960784%);fill-opacity:1;"
      d="M 200.371094 177.421875 C 197.929688 181.300781 204.019531 182.71875 204.019531 182.71875 C 204.019531 182.71875 211.308594 177.230469 211.460938 173.578125 C 211.609375 169.929688 202.308594 174.339844 200.371094 177.421875 Z M 200.371094 177.421875 " />
    <path style=" stroke:none;fill-rule:nonzero;fill:rgb(14.901961%,19.607843%,21.960784%);fill-opacity:1;"
      d="M 198 178.878906 C 196.800781 177.878906 195.480469 174.070312 196.488281 170.71875 C 197.5 167.371094 200.71875 163.71875 203.621094 164.910156 C 204.699219 161.820312 219.539062 158.019531 224.5 164.910156 C 230.28125 172.960938 227.25 177.101562 222.441406 173.980469 L 213.640625 171.128906 Z M 198 178.878906 " />
    <path style=" stroke:none;fill-rule:nonzero;fill:rgb(14.901961%,19.607843%,21.960784%);fill-opacity:1;"
      d="M 224.371094 173.25 C 222.019531 176.03125 213.109375 175.398438 213.109375 175.398438 L 216.03125 172.199219 C 214.085938 173.640625 211.675781 174.304688 209.269531 174.070312 C 204.898438 173.820312 207.269531 169.328125 207.269531 169.328125 C 207.269531 169.328125 228.789062 168 224.371094 173.25 Z M 224.371094 173.25 " />
    <path style=" stroke:none;fill-rule:nonzero;fill:rgb(70.980392%,35.686275%,32.156863%);fill-opacity:1;"
      d="M 197.199219 178.648438 C 197.113281 180.648438 197.761719 182.609375 199.03125 184.160156 C 200.691406 186.160156 203.25 184.558594 203.851562 182.101562 C 204.378906 179.890625 203.691406 176.460938 201.511719 175.398438 C 199.328125 174.339844 197.308594 176.171875 197.199219 178.648438 Z M 197.199219 178.648438 " />
    <path style=" stroke:none;fill-rule:nonzero;fill:rgb(25.098039%,48.235294%,100%);fill-opacity:1;"
      d="M 196.328125 172.898438 C 195.871094 169.867188 196.726562 166.785156 198.679688 164.421875 C 197.859375 164.609375 195.289062 163.101562 200.019531 159.941406 C 204.75 156.78125 214.570312 155.941406 219.460938 158.351562 C 229.039062 163.050781 226.390625 168.609375 226.390625 168.609375 Z M 196.328125 172.898438 " />
    <use xlink:href="#surface32" mask="url(#mask9)" />
    <path style=" stroke:none;fill-rule:nonzero;fill:rgb(25.098039%,48.235294%,100%);fill-opacity:1;"
      d="M 196.519531 178.601562 C 198.179688 178.660156 199.789062 173.648438 213.859375 171.121094 C 219.539062 170.121094 225.488281 171.921875 227.148438 173.558594 C 228.808594 175.199219 228.03125 169.808594 227.429688 167.878906 C 226.828125 165.949219 218.039062 164.410156 212.328125 165.101562 C 202.421875 166.289062 196.46875 171.339844 195.648438 172.609375 C 194.828125 173.878906 195 178.558594 196.519531 178.601562 Z M 196.519531 178.601562 " />
    <path style=" stroke:none;fill-rule:nonzero;fill:rgb(14.901961%,19.607843%,21.960784%);fill-opacity:1;"
      d="M 201.699219 180 C 202.09375 180.828125 201.773438 181.820312 200.96875 182.261719 C 200.238281 182.488281 199.378906 181.871094 199.050781 180.859375 C 198.65625 180.03125 198.976562 179.039062 199.78125 178.601562 C 200.511719 178.371094 201.371094 179 201.699219 180 Z M 201.699219 180 " />
    <path style=" stroke:none;fill-rule:nonzero;fill:rgb(14.901961%,19.607843%,21.960784%);fill-opacity:1;"
      d="M 202.878906 274.539062 C 201.160156 274.539062 200.019531 274.078125 199.390625 273.128906 C 197.851562 270.828125 199.820312 266.078125 201.910156 261.050781 C 203.910156 256.351562 205.910156 251.480469 205.351562 248.140625 C 204.351562 241.769531 205.269531 233.730469 206.171875 225.960938 C 206.46875 223.398438 206.75 220.960938 206.960938 218.640625 C 203.089844 214.640625 199.191406 209.511719 201.238281 198.949219 C 202.601562 191.949219 202.300781 186.148438 200.351562 181.648438 C 200.316406 181.582031 200.3125 181.503906 200.339844 181.433594 C 200.367188 181.363281 200.421875 181.308594 200.488281 181.28125 C 200.632812 181.214844 200.800781 181.277344 200.871094 181.421875 C 202.871094 186.039062 203.179688 191.96875 201.800781 199.058594 C 199.800781 209.429688 203.660156 214.449219 207.460938 218.328125 C 207.511719 218.394531 207.539062 218.476562 207.53125 218.558594 C 207.320312 220.949219 207.039062 223.421875 206.730469 226.03125 C 205.839844 233.761719 204.910156 241.761719 205.910156 248.03125 C 206.46875 251.53125 204.421875 256.46875 202.429688 261.25 C 200.441406 266.03125 198.488281 270.75 199.859375 272.800781 C 200.378906 273.578125 201.371094 273.960938 202.859375 273.960938 C 203.015625 273.960938 203.140625 274.085938 203.140625 274.238281 C 203.140625 274.394531 203.015625 274.519531 202.859375 274.519531 Z M 202.878906 274.539062 " />
    <path style=" stroke:none;fill-rule:nonzero;fill:rgb(14.901961%,19.607843%,21.960784%);fill-opacity:1;"
      d="M 215.890625 180.46875 C 215.660156 181.179688 215.890625 181.890625 216.300781 182.058594 C 216.710938 182.230469 217.300781 181.789062 217.539062 181.058594 C 217.78125 180.328125 217.601562 179.640625 217.140625 179.46875 C 216.679688 179.300781 216.121094 179.761719 215.890625 180.46875 Z M 215.890625 180.46875 " />
    <path style=" stroke:none;fill-rule:nonzero;fill:rgb(14.901961%,19.607843%,21.960784%);fill-opacity:1;"
      d="M 225.011719 182.371094 C 224.546875 182.230469 223.996094 182.699219 223.78125 183.410156 C 223.566406 184.125 223.769531 184.816406 224.238281 184.957031 C 224.703125 185.097656 225.253906 184.632812 225.46875 183.917969 C 225.679688 183.203125 225.476562 182.511719 225.011719 182.371094 Z M 225.011719 182.371094 " />
    <path style=" stroke:none;fill-rule:nonzero;fill:rgb(62.745098%,15.294118%,14.117647%);fill-opacity:1;"
      d="M 221.089844 183 C 221.058594 185.113281 221.304688 187.222656 221.828125 189.269531 C 220.410156 189.789062 218.828125 188.558594 218.828125 188.558594 Z M 221.089844 183 " />
    <path style=" stroke:none;fill-rule:nonzero;fill:rgb(14.901961%,19.607843%,21.960784%);fill-opacity:1;"
      d="M 216.851562 192.449219 C 215.195312 191.894531 213.835938 190.695312 213.078125 189.121094 C 213.039062 189.007812 213.089844 188.886719 213.199219 188.839844 C 213.253906 188.816406 213.316406 188.816406 213.371094 188.839844 C 213.425781 188.863281 213.46875 188.90625 213.488281 188.960938 C 214.332031 190.664062 215.914062 191.886719 217.78125 192.261719 C 217.898438 192.285156 217.976562 192.402344 217.949219 192.519531 C 217.925781 192.636719 217.808594 192.714844 217.691406 192.691406 C 217.40625 192.625 217.125 192.546875 216.851562 192.449219 Z M 216.851562 192.449219 " />
    <path style=" stroke:none;fill-rule:nonzero;fill:rgb(14.901961%,19.607843%,21.960784%);fill-opacity:1;"
      d="M 215.160156 177.410156 C 215.09375 177.375 215.039062 177.324219 215 177.261719 C 214.9375 177.164062 214.917969 177.042969 214.945312 176.929688 C 214.96875 176.816406 215.039062 176.71875 215.140625 176.660156 C 216.300781 175.878906 217.773438 175.726562 219.070312 176.25 C 219.226562 176.308594 219.335938 176.449219 219.351562 176.617188 C 219.371094 176.78125 219.292969 176.941406 219.152344 177.03125 C 219.011719 177.121094 218.832031 177.125 218.691406 177.039062 C 217.667969 176.648438 216.519531 176.777344 215.609375 177.390625 C 215.472656 177.476562 215.304688 177.484375 215.160156 177.410156 Z M 215.160156 177.410156 " />
    <path style=" stroke:none;fill-rule:nonzero;fill:rgb(14.901961%,19.607843%,21.960784%);fill-opacity:1;"
      d="M 225.371094 178.800781 C 225.351562 178.726562 225.351562 178.652344 225.371094 178.578125 C 225.460938 178.359375 225.714844 178.25 225.941406 178.339844 C 227.242188 178.847656 228.207031 179.972656 228.511719 181.339844 C 228.515625 181.558594 228.355469 181.75 228.140625 181.785156 C 227.925781 181.820312 227.714844 181.6875 227.648438 181.480469 C 227.390625 180.410156 226.625 179.539062 225.601562 179.140625 C 225.46875 179.074219 225.378906 178.945312 225.371094 178.800781 Z M 225.371094 178.800781 " />
    <path style=" stroke:none;fill-rule:nonzero;fill:rgb(70.980392%,35.686275%,32.156863%);fill-opacity:1;"
      d="M 188 212.730469 C 187.171875 214.230469 186.261719 215.941406 185.398438 217.558594 C 184.539062 219.179688 183.691406 220.871094 182.871094 222.558594 C 181.21875 225.890625 179.671875 229.238281 178.261719 232.558594 C 176.878906 235.8125 175.722656 239.152344 174.800781 242.558594 C 174.40625 244.058594 174.125 245.582031 173.960938 247.121094 C 173.789062 248.449219 174.03125 249.890625 173.960938 249.578125 C 174.429688 250.386719 175.078125 251.070312 175.859375 251.578125 C 177.113281 252.511719 178.453125 253.316406 179.859375 253.988281 C 183.09375 255.539062 186.433594 256.851562 189.859375 257.910156 C 193.320312 259 197 260 200.609375 261 C 204.21875 262 208.03125 262.78125 211.671875 263.578125 L 210.988281 270.488281 C 203.003906 270.363281 195.042969 269.527344 187.199219 268 C 183.113281 267.214844 179.097656 266.085938 175.199219 264.628906 C 173.042969 263.816406 170.96875 262.792969 169.011719 261.578125 C 166.472656 260.078125 164.351562 257.964844 162.839844 255.429688 C 162.382812 254.59375 162.015625 253.714844 161.75 252.800781 L 161.558594 252.109375 L 161.449219 251.570312 C 161.359375 251.199219 161.308594 250.859375 161.25 250.5 C 161.0625 249.191406 160.976562 247.871094 161 246.550781 C 161.050781 244.226562 161.316406 241.914062 161.789062 239.640625 C 162.644531 235.5 163.832031 231.4375 165.351562 227.488281 C 166.78125 223.648438 168.410156 219.949219 170.160156 216.328125 C 171.039062 214.515625 171.949219 212.726562 172.890625 210.960938 C 173.828125 209.160156 174.78125 207.480469 175.890625 205.628906 Z M 188 212.730469 " />
    <path style=" stroke:none;fill-rule:nonzero;fill:rgb(25.098039%,48.235294%,100%);fill-opacity:1;"
      d="M 180.390625 199.171875 C 189.710938 197.75 194.289062 205.75 189.910156 217.691406 C 187.636719 224.148438 184.785156 230.390625 181.390625 236.339844 L 161.300781 227.53125 C 164.898438 215.710938 170.828125 200.621094 180.390625 199.171875 Z M 180.390625 199.171875 " />
    <path style=" stroke:none;fill-rule:nonzero;fill:rgb(70.980392%,35.686275%,32.156863%);fill-opacity:1;"
      d="M 212.480469 263.660156 L 218.058594 265.570312 L 210.648438 272.648438 C 210.648438 272.648438 201.601562 269.398438 203.449219 265.46875 L 205.730469 264.171875 C 207.804688 263.046875 210.257812 262.863281 212.480469 263.660156 Z M 212.480469 263.660156 " />
    <path style=" stroke:none;fill-rule:nonzero;fill:rgb(70.980392%,35.686275%,32.156863%);fill-opacity:1;"
      d="M 224.628906 269.328125 L 216.261719 274.261719 L 210.660156 272.648438 L 218.058594 265.570312 Z M 224.628906 269.328125 " />
    <path style=" stroke:none;fill-rule:nonzero;fill:rgb(25.098039%,48.235294%,100%);fill-opacity:1;"
      d="M 148.671875 274.679688 L 356.289062 274.679688 L 356.289062 281.441406 L 148.671875 281.441406 Z M 148.671875 274.679688 " />
    <use xlink:href="#surface35" mask="url(#mask10)" />
    <use xlink:href="#surface38" mask="url(#mask11)" />
    <path style=" stroke:none;fill-rule:nonzero;fill:rgb(25.098039%,48.235294%,100%);fill-opacity:1;"
      d="M 300.058594 272.441406 L 202.230469 272.441406 C 200.996094 272.445312 199.996094 273.445312 199.988281 274.679688 L 302.308594 274.679688 C 302.304688 273.441406 301.296875 272.441406 300.058594 272.441406 Z M 300.058594 272.441406 " />
    <path style=" stroke:none;fill-rule:nonzero;fill:rgb(25.098039%,48.235294%,100%);fill-opacity:1;"
      d="M 313 226.671875 L 246.148438 226.671875 C 245.273438 226.714844 244.519531 227.308594 244.269531 228.148438 L 233.269531 269.390625 C 233.140625 269.738281 233.195312 270.125 233.414062 270.425781 C 233.636719 270.722656 233.992188 270.890625 234.359375 270.871094 L 301.238281 270.871094 C 302.121094 270.84375 302.882812 270.242188 303.109375 269.390625 L 314.109375 228.148438 C 314.238281 227.800781 314.183594 227.40625 313.957031 227.105469 C 313.734375 226.808594 313.375 226.644531 313 226.671875 Z M 313 226.671875 " />
    <use xlink:href="#surface41" mask="url(#mask12)" />
    <use xlink:href="#surface44" mask="url(#mask13)" />
    <path style=" stroke:none;fill-rule:nonzero;fill:rgb(25.098039%,48.235294%,100%);fill-opacity:1;"
      d="M 191.558594 416.238281 L 195.558594 416.238281 L 189.949219 385.339844 L 193.441406 385.339844 L 193.441406 381.339844 L 189.199219 381.339844 L 171.78125 285.398438 L 174.351562 285.398438 L 174.351562 281.398438 L 164.410156 281.398438 L 164.410156 285.398438 L 167 285.398438 L 149.578125 381.339844 L 145.359375 381.339844 L 145.359375 385.339844 L 148.851562 385.339844 L 143.238281 416.238281 L 147.238281 416.238281 L 152.851562 385.339844 L 186 385.339844 Z M 153.558594 381.359375 L 169.410156 294.109375 L 185.25 381.359375 Z M 153.558594 381.359375 " />
    <path style=" stroke:none;fill-rule:nonzero;fill:rgb(25.098039%,48.235294%,100%);fill-opacity:1;"
      d="M 356.238281 412.558594 L 360.238281 412.558594 L 354.628906 385.339844 L 358.121094 385.339844 L 358.121094 381.339844 L 353.898438 381.339844 L 336.480469 285.398438 L 339 285.398438 L 339 281.398438 L 329.058594 281.398438 L 329.058594 285.398438 L 331.628906 285.398438 L 314.210938 381.339844 L 310 381.339844 L 310 385.339844 L 313.488281 385.339844 L 307.878906 412.558594 L 311.878906 412.558594 L 317.488281 385.339844 L 350.628906 385.339844 Z M 318.238281 381.359375 L 334.078125 294.109375 L 349.929688 381.359375 Z M 318.238281 381.359375 " />
    <path style=" stroke:none;fill-rule:nonzero;fill:rgb(14.901961%,19.607843%,21.960784%);fill-opacity:1;"
      d="M 312.128906 272.441406 L 337.769531 272.441406 C 338.171875 272.441406 338.5 272.765625 338.5 273.171875 L 338.5 273.949219 C 338.5 274.351562 338.171875 274.679688 337.769531 274.679688 L 312.128906 274.679688 C 311.726562 274.679688 311.398438 274.351562 311.398438 273.949219 L 311.398438 273.171875 C 311.398438 272.765625 311.726562 272.441406 312.128906 272.441406 Z M 312.128906 272.441406 " />
    <use xlink:href="#surface47" mask="url(#mask14)" />
    <path style=" stroke:none;fill-rule:nonzero;fill:rgb(100%,100%,100%);fill-opacity:1;"
      d="M 314.078125 184.230469 L 281.511719 184.230469 L 281.621094 183.03125 L 314.191406 183.03125 Z M 314.078125 184.230469 " />
    <path style=" stroke:none;fill-rule:nonzero;fill:rgb(25.098039%,48.235294%,100%);fill-opacity:1;"
      d="M 319.191406 186.148438 L 284.691406 186.148438 L 284.789062 184.949219 L 319.300781 184.949219 Z M 319.191406 186.148438 " />
    <path style=" stroke:none;fill-rule:nonzero;fill:rgb(25.098039%,48.235294%,100%);fill-opacity:1;"
      d="M 313.109375 188.070312 L 284.519531 188.070312 L 284.621094 186.871094 L 313.210938 186.871094 Z M 313.109375 188.070312 " />
    <path style=" stroke:none;fill-rule:nonzero;fill:rgb(25.098039%,48.235294%,100%);fill-opacity:1;"
      d="M 309.949219 189.988281 L 284.351562 189.988281 L 284.449219 188.789062 L 310.058594 188.789062 Z M 309.949219 189.988281 " />
    <path style=" stroke:none;fill-rule:nonzero;fill:rgb(100%,100%,100%);fill-opacity:1;"
      d="M 301.890625 193.121094 L 280.730469 193.121094 L 280.828125 191.910156 L 301.988281 191.910156 Z M 301.890625 193.121094 " />
    <path style=" stroke:none;fill-rule:nonzero;fill:rgb(25.098039%,48.235294%,100%);fill-opacity:1;"
      d="M 306.378906 197.671875 L 283.660156 197.671875 L 283.558594 198.878906 L 306.269531 198.878906 Z M 306.378906 197.671875 " />
    <path style=" stroke:none;fill-rule:nonzero;fill:rgb(25.098039%,48.235294%,100%);fill-opacity:1;"
      d="M 302.660156 195.75 L 283.828125 195.75 L 283.730469 196.960938 L 302.550781 196.960938 Z M 302.660156 195.75 " />
    <path style=" stroke:none;fill-rule:nonzero;fill:rgb(25.098039%,48.235294%,100%);fill-opacity:1;"
      d="M 304.738281 193.828125 L 284 193.828125 L 283.898438 195.039062 L 304.628906 195.039062 Z M 304.738281 193.828125 " />
    <path style=" stroke:none;fill-rule:nonzero;fill:rgb(100%,100%,100%);fill-opacity:1;"
      d="M 300.578125 207.761719 L 279.421875 207.761719 L 279.53125 206.558594 L 300.691406 206.558594 Z M 300.578125 207.761719 " />
    <path style=" stroke:none;fill-rule:nonzero;fill:rgb(25.098039%,48.235294%,100%);fill-opacity:1;"
      d="M 305.078125 212.320312 L 282.359375 212.320312 L 282.25 213.519531 L 304.96875 213.519531 Z M 305.078125 212.320312 " />
    <path style=" stroke:none;fill-rule:nonzero;fill:rgb(25.098039%,48.235294%,100%);fill-opacity:1;"
      d="M 301.359375 210.398438 L 282.53125 210.398438 L 282.429688 211.601562 L 301.25 211.601562 Z M 301.359375 210.398438 " />
    <path style=" stroke:none;fill-rule:nonzero;fill:rgb(25.098039%,48.235294%,100%);fill-opacity:1;"
      d="M 303.441406 208.480469 L 282.699219 208.480469 L 282.601562 209.679688 L 303.328125 209.679688 Z M 303.441406 208.480469 " />
    <path style=" stroke:none;fill-rule:nonzero;fill:rgb(100%,100%,100%);fill-opacity:1;"
      d="M 292.039062 175.28125 L 274.859375 175.28125 L 274.960938 174.070312 L 292.148438 174.070312 Z M 292.039062 175.28125 " />
    <path style=" stroke:none;fill-rule:nonzero;fill:rgb(100%,100%,100%);fill-opacity:1;"
      d="M 295.621094 179.828125 L 277.171875 179.828125 L 277.058594 181.039062 L 295.511719 181.039062 Z M 295.621094 179.828125 " />
    <path style=" stroke:none;fill-rule:nonzero;fill:rgb(100%,100%,100%);fill-opacity:1;"
      d="M 292.621094 177.910156 L 277.339844 177.910156 L 277.230469 179.121094 L 292.519531 179.121094 Z M 292.621094 177.910156 " />
    <path style=" stroke:none;fill-rule:nonzero;fill:rgb(100%,100%,100%);fill-opacity:1;"
      d="M 294.339844 175.988281 L 277.511719 175.988281 L 277.398438 177.199219 L 294.238281 177.199219 Z M 294.339844 175.988281 " />
    <path style=" stroke:none;fill-rule:nonzero;fill:rgb(25.098039%,48.235294%,100%);fill-opacity:1;"
      d="M 305.871094 203.429688 L 283.148438 203.429688 L 283.039062 204.640625 L 305.761719 204.640625 Z M 305.871094 203.429688 " />
    <path style=" stroke:none;fill-rule:nonzero;fill:rgb(25.098039%,48.235294%,100%);fill-opacity:1;"
      d="M 302.148438 201.511719 L 283.320312 201.511719 L 283.210938 202.71875 L 302.039062 202.71875 Z M 302.148438 201.511719 " />
    <path style=" stroke:none;fill-rule:nonzero;fill:rgb(25.098039%,48.235294%,100%);fill-opacity:1;"
      d="M 304.230469 199.589844 L 283.488281 199.589844 L 283.390625 200.800781 L 304.121094 200.800781 Z M 304.230469 199.589844 " />
    <path style=" stroke:none;fill-rule:nonzero;fill:rgb(25.098039%,48.235294%,100%);fill-opacity:1;"
      d="M 345.71875 163.421875 L 308.210938 163.421875 C 307.539062 163.429688 306.898438 163.152344 306.445312 162.65625 C 305.996094 162.160156 305.777344 161.496094 305.851562 160.828125 L 308.671875 129.121094 C 308.816406 127.714844 309.988281 126.644531 311.398438 126.621094 L 348.898438 126.621094 C 349.570312 126.609375 350.210938 126.886719 350.664062 127.382812 C 351.113281 127.878906 351.332031 128.542969 351.261719 129.210938 L 348.441406 160.921875 C 348.296875 162.324219 347.128906 163.398438 345.71875 163.421875 Z M 311.398438 127.621094 C 310.503906 127.640625 309.761719 128.320312 309.660156 129.210938 L 306.851562 160.921875 C 306.800781 161.308594 306.925781 161.699219 307.191406 161.988281 C 307.449219 162.265625 307.8125 162.421875 308.191406 162.421875 L 345.699219 162.421875 C 346.59375 162.398438 347.335938 161.71875 347.429688 160.828125 L 350.25 129.121094 C 350.285156 128.734375 350.160156 128.347656 349.898438 128.058594 C 349.644531 127.78125 349.28125 127.621094 348.898438 127.621094 Z M 311.398438 127.621094 " />
    <path style=" stroke:none;fill-rule:nonzero;fill:rgb(25.098039%,48.235294%,100%);fill-opacity:1;"
      d="M 350.199219 136.070312 L 308.601562 136.070312 C 308.324219 136.070312 308.101562 135.847656 308.101562 135.570312 C 308.101562 135.292969 308.324219 135.070312 308.601562 135.070312 L 350.199219 135.070312 C 350.476562 135.070312 350.699219 135.292969 350.699219 135.570312 C 350.695312 135.84375 350.472656 136.066406 350.199219 136.070312 Z M 350.199219 136.070312 " />
    <path style=" stroke:none;fill-rule:nonzero;fill:rgb(25.098039%,48.235294%,100%);fill-opacity:1;"
      d="M 316 163.421875 L 315.949219 163.421875 C 315.816406 163.410156 315.695312 163.347656 315.609375 163.246094 C 315.527344 163.144531 315.484375 163.011719 315.5 162.878906 L 317.929688 135.519531 C 317.960938 135.25 318.199219 135.050781 318.46875 135.070312 C 318.601562 135.082031 318.726562 135.144531 318.8125 135.246094 C 318.898438 135.34375 318.941406 135.476562 318.929688 135.609375 L 316.488281 163 C 316.449219 163.238281 316.242188 163.414062 316 163.421875 Z M 316 163.421875 " />
    <path style=" stroke:none;fill-rule:nonzero;fill:rgb(25.098039%,48.235294%,100%);fill-opacity:1;"
      d="M 345.320312 139.320312 L 322.738281 139.320312 C 322.464844 139.320312 322.238281 139.097656 322.238281 138.820312 C 322.238281 138.542969 322.464844 138.320312 322.738281 138.320312 L 345.320312 138.320312 C 345.597656 138.320312 345.820312 138.542969 345.820312 138.820312 C 345.820312 139.097656 345.597656 139.320312 345.320312 139.320312 Z M 345.320312 139.320312 " />
    <path style=" stroke:none;fill-rule:nonzero;fill:rgb(25.098039%,48.235294%,100%);fill-opacity:1;"
      d="M 341.78125 143.308594 L 322.378906 143.308594 C 322.105469 143.304688 321.886719 143.082031 321.878906 142.808594 C 321.878906 142.535156 322.105469 142.308594 322.378906 142.308594 L 341.78125 142.308594 C 342.054688 142.308594 342.28125 142.535156 342.28125 142.808594 C 342.28125 143.085938 342.054688 143.308594 341.78125 143.308594 Z M 341.78125 143.308594 " />
    <path style=" stroke:none;fill-rule:nonzero;fill:rgb(25.098039%,48.235294%,100%);fill-opacity:1;"
      d="M 333.308594 147.421875 L 322 147.421875 C 321.722656 147.421875 321.5 147.195312 321.5 146.921875 C 321.5 146.644531 321.722656 146.421875 322 146.421875 L 333.289062 146.421875 C 333.5625 146.425781 333.785156 146.644531 333.789062 146.921875 C 333.789062 147.1875 333.578125 147.410156 333.308594 147.421875 Z M 333.308594 147.421875 " />
    <path style=" stroke:none;fill-rule:nonzero;fill:rgb(25.098039%,48.235294%,100%);fill-opacity:1;"
      d="M 335.089844 155.449219 L 321.300781 155.449219 C 321.023438 155.449219 320.800781 155.226562 320.800781 154.949219 C 320.804688 154.675781 321.027344 154.457031 321.300781 154.449219 L 335.089844 154.449219 C 335.363281 154.457031 335.585938 154.675781 335.589844 154.949219 C 335.589844 155.226562 335.367188 155.449219 335.089844 155.449219 Z M 335.089844 155.449219 " />
    <path style=" stroke:none;fill-rule:nonzero;fill:rgb(25.098039%,48.235294%,100%);fill-opacity:1;"
      d="M 332.230469 159.570312 L 320.941406 159.570312 C 320.664062 159.570312 320.441406 159.347656 320.441406 159.070312 C 320.441406 158.792969 320.664062 158.570312 320.941406 158.570312 L 332.230469 158.570312 C 332.507812 158.570312 332.730469 158.792969 332.730469 159.070312 C 332.730469 159.347656 332.507812 159.570312 332.230469 159.570312 Z M 332.230469 159.570312 " />
    <path style=" stroke:none;fill-rule:nonzero;fill:rgb(25.098039%,48.235294%,100%);fill-opacity:1;"
      d="M 338.839844 159.570312 L 335.21875 159.570312 C 334.945312 159.570312 334.71875 159.347656 334.71875 159.070312 C 334.71875 158.792969 334.945312 158.570312 335.21875 158.570312 L 338.839844 158.570312 C 339.117188 158.570312 339.339844 158.792969 339.339844 159.070312 C 339.339844 159.347656 339.117188 159.570312 338.839844 159.570312 Z M 338.839844 159.570312 " />
    <path style=" stroke:none;fill-rule:nonzero;fill:rgb(25.098039%,48.235294%,100%);fill-opacity:1;"
      d="M 342.808594 151.410156 L 321.660156 151.410156 C 321.382812 151.410156 321.160156 151.1875 321.160156 150.910156 C 321.160156 150.632812 321.382812 150.410156 321.660156 150.410156 L 342.808594 150.410156 C 343.085938 150.410156 343.308594 150.632812 343.308594 150.910156 C 343.308594 151.1875 343.085938 151.410156 342.808594 151.410156 Z M 342.808594 151.410156 " />
    <path style=" stroke:none;fill-rule:nonzero;fill:rgb(14.901961%,19.607843%,21.960784%);fill-opacity:1;"
      d="M 268.140625 160.308594 C 268.003906 160.308594 267.875 160.253906 267.78125 160.160156 C 267.589844 159.964844 267.589844 159.65625 267.78125 159.460938 L 270.28125 156.960938 L 267.78125 154.46875 C 267.582031 154.273438 267.582031 153.957031 267.78125 153.761719 C 267.976562 153.5625 268.292969 153.5625 268.488281 153.761719 L 271.339844 156.609375 C 271.53125 156.808594 271.53125 157.121094 271.339844 157.320312 L 268.488281 160.160156 C 268.398438 160.253906 268.273438 160.308594 268.140625 160.308594 Z M 268.140625 160.308594 " />
    <path style=" stroke:none;fill-rule:nonzero;fill:rgb(14.901961%,19.607843%,21.960784%);fill-opacity:1;"
      d="M 259.601562 160.308594 C 259.46875 160.308594 259.339844 160.253906 259.25 160.160156 L 256.398438 157.320312 C 256.207031 157.121094 256.207031 156.808594 256.398438 156.609375 L 259.25 153.761719 C 259.445312 153.5625 259.765625 153.5625 259.960938 153.761719 C 260.15625 153.957031 260.15625 154.273438 259.960938 154.46875 L 257.460938 156.960938 L 259.960938 159.460938 C 260.152344 159.65625 260.152344 159.964844 259.960938 160.160156 C 259.863281 160.253906 259.734375 160.308594 259.601562 160.308594 Z M 259.601562 160.308594 " />
    <path style=" stroke:none;fill-rule:nonzero;fill:rgb(14.901961%,19.607843%,21.960784%);fill-opacity:1;"
      d="M 262.800781 160.308594 C 262.742188 160.320312 262.6875 160.320312 262.628906 160.308594 C 262.375 160.210938 262.246094 159.925781 262.339844 159.671875 L 264.46875 153.96875 C 264.566406 153.714844 264.851562 153.585938 265.109375 153.679688 C 265.371094 153.773438 265.503906 154.058594 265.410156 154.320312 L 263.269531 160.019531 C 263.1875 160.203125 263 160.320312 262.800781 160.308594 Z M 262.800781 160.308594 " />
    <path style=" stroke:none;fill-rule:nonzero;fill:rgb(25.098039%,48.235294%,100%);fill-opacity:1;"
      d="M 331.929688 234.101562 C 331.796875 234.101562 331.671875 234.046875 331.578125 233.949219 C 331.484375 233.855469 331.433594 233.726562 331.433594 233.59375 C 331.433594 233.460938 331.484375 233.332031 331.578125 233.238281 L 334.070312 230.75 L 331.578125 228.25 C 331.386719 228.058594 331.386719 227.742188 331.578125 227.550781 C 331.773438 227.355469 332.085938 227.355469 332.28125 227.550781 L 335.128906 230.390625 C 335.222656 230.488281 335.277344 230.617188 335.28125 230.75 C 335.277344 230.882812 335.222656 231.007812 335.128906 231.101562 L 332.28125 234 C 332.179688 234.078125 332.054688 234.113281 331.929688 234.101562 Z M 331.929688 234.101562 " />
    <path style=" stroke:none;fill-rule:nonzero;fill:rgb(25.098039%,48.235294%,100%);fill-opacity:1;"
      d="M 323.390625 234.101562 C 323.25 234.121094 323.109375 234.085938 323 234 L 320.148438 231.148438 C 319.957031 230.953125 319.957031 230.636719 320.148438 230.441406 L 323 227.601562 C 323.09375 227.503906 323.222656 227.453125 323.355469 227.453125 C 323.488281 227.453125 323.617188 227.503906 323.710938 227.601562 C 323.902344 227.792969 323.902344 228.105469 323.710938 228.300781 L 321.210938 230.800781 L 323.710938 233.289062 C 323.902344 233.488281 323.902344 233.800781 323.710938 234 C 323.617188 234.070312 323.503906 234.105469 323.390625 234.101562 Z M 323.390625 234.101562 " />
    <path style=" stroke:none;fill-rule:nonzero;fill:rgb(25.098039%,48.235294%,100%);fill-opacity:1;"
      d="M 326.601562 234.101562 C 326.539062 234.113281 326.480469 234.113281 326.421875 234.101562 C 326.296875 234.054688 326.195312 233.960938 326.140625 233.839844 C 326.085938 233.722656 326.082031 233.582031 326.128906 233.460938 L 328.261719 227.761719 C 328.355469 227.5 328.644531 227.367188 328.90625 227.464844 C 329.164062 227.5625 329.296875 227.851562 329.199219 228.109375 L 327.058594 233.808594 C 326.980469 233.992188 326.796875 234.105469 326.601562 234.101562 Z M 326.601562 234.101562 " />
    <path style=" stroke:none;fill-rule:nonzero;fill:rgb(25.098039%,48.235294%,100%);fill-opacity:1;"
      d="M 309.351562 120.699219 C 309.214844 120.699219 309.085938 120.644531 308.988281 120.550781 C 308.800781 120.355469 308.800781 120.042969 308.988281 119.851562 L 311.488281 117.351562 L 308.988281 114.859375 C 308.792969 114.664062 308.792969 114.347656 308.988281 114.148438 C 309.1875 113.953125 309.503906 113.953125 309.699219 114.148438 L 312.550781 117 C 312.742188 117.199219 312.742188 117.511719 312.550781 117.710938 L 309.699219 120.550781 C 309.609375 120.644531 309.480469 120.699219 309.351562 120.699219 Z M 309.351562 120.699219 " />
    <path style=" stroke:none;fill-rule:nonzero;fill:rgb(25.098039%,48.235294%,100%);fill-opacity:1;"
      d="M 300.808594 120.699219 C 300.679688 120.699219 300.550781 120.644531 300.460938 120.550781 L 297.609375 117.710938 C 297.417969 117.511719 297.417969 117.199219 297.609375 117 L 300.460938 114.148438 C 300.65625 113.953125 300.972656 113.953125 301.171875 114.148438 C 301.367188 114.347656 301.367188 114.664062 301.171875 114.859375 L 298.671875 117.351562 L 301.171875 119.851562 C 301.359375 120.042969 301.359375 120.355469 301.171875 120.550781 C 301.074219 120.644531 300.945312 120.699219 300.808594 120.699219 Z M 300.808594 120.699219 " />
    <path style=" stroke:none;fill-rule:nonzero;fill:rgb(25.098039%,48.235294%,100%);fill-opacity:1;"
      d="M 304 120.699219 L 303.828125 120.699219 C 303.574219 120.601562 303.445312 120.316406 303.539062 120.058594 L 305.671875 114.359375 C 305.769531 114.105469 306.054688 113.976562 306.308594 114.070312 C 306.570312 114.164062 306.703125 114.449219 306.609375 114.710938 L 304.46875 120.410156 C 304.386719 120.59375 304.203125 120.710938 304 120.699219 Z M 304 120.699219 " />
  </g>
</svg>
