<svg xmlns="http://www.w3.org/2000/svg" xmlns:xlink="http://www.w3.org/1999/xlink" width="500" height="500"><defs><clipPath id="b"><path d="M0 0h500v500H0z"/></clipPath><clipPath id="c"><path d="M0 0h500v500H0z"/></clipPath><clipPath id="d"><path d="M0 0h500v500H0z"/></clipPath><clipPath id="e"><path d="M0 0h500v500H0z"/></clipPath><clipPath id="f"><path d="M0 0h500v500H0z"/></clipPath><clipPath id="g"><path d="M0 0h500v500H0z"/></clipPath><clipPath id="h"><path d="M0 0h500v500H0z"/></clipPath><clipPath id="i"><path d="M0 0h500v500H0z"/></clipPath><clipPath id="j"><path d="M0 0h500v500H0z"/></clipPath><clipPath id="k"><path d="M0 0h500v500H0z"/></clipPath><clipPath id="l"><path d="M0 0h500v500H0z"/></clipPath><clipPath id="m"><path d="M0 0h500v500H0z"/></clipPath><clipPath id="n"><path d="M0 0h500v500H0z"/></clipPath><clipPath id="o"><path d="M0 0h500v500H0z"/></clipPath><clipPath id="p"><path d="M0 0h500v500H0z"/></clipPath><mask id="r"><g filter="url(#a)"><path d="M0 0h500v500H0z" style="fill:#000;fill-opacity:.501961;stroke:none"/></g></mask><mask id="t"><g filter="url(#a)"><path d="M0 0h500v500H0z" style="fill:#000;fill-opacity:.701961;stroke:none"/></g></mask><mask id="v"><g filter="url(#a)"><path d="M0 0h500v500H0z" style="fill:#000;fill-opacity:.501961;stroke:none"/></g></mask><mask id="x"><g filter="url(#a)"><path d="M0 0h500v500H0z" style="fill:#000;fill-opacity:.2;stroke:none"/></g></mask><mask id="z"><g filter="url(#a)"><path d="M0 0h500v500H0z" style="fill:#000;fill-opacity:.301961;stroke:none"/></g></mask><mask id="B"><g filter="url(#a)"><path d="M0 0h500v500H0z" style="fill:#000;fill-opacity:.2;stroke:none"/></g></mask><mask id="D"><g filter="url(#a)"><path d="M0 0h500v500H0z" style="fill:#000;fill-opacity:.301961;stroke:none"/></g></mask><mask id="F"><g filter="url(#a)"><path d="M0 0h500v500H0z" style="fill:#000;fill-opacity:.301961;stroke:none"/></g></mask><mask id="H"><g filter="url(#a)"><path d="M0 0h500v500H0z" style="fill:#000;fill-opacity:.2;stroke:none"/></g></mask><mask id="J"><g filter="url(#a)"><path d="M0 0h500v500H0z" style="fill:#000;fill-opacity:.301961;stroke:none"/></g></mask><mask id="L"><g filter="url(#a)"><path d="M0 0h500v500H0z" style="fill:#000;fill-opacity:.6;stroke:none"/></g></mask><mask id="N"><g filter="url(#a)"><path d="M0 0h500v500H0z" style="fill:#000;fill-opacity:.501961;stroke:none"/></g></mask><mask id="P"><g filter="url(#a)"><path d="M0 0h500v500H0z" style="fill:#000;fill-opacity:.2;stroke:none"/></g></mask><mask id="R"><g filter="url(#a)"><path d="M0 0h500v500H0z" style="fill:#000;fill-opacity:.2;stroke:none"/></g></mask><mask id="T"><g filter="url(#a)"><path d="M0 0h500v500H0z" style="fill:#000;fill-opacity:.901961;stroke:none"/></g></mask><g id="q" clip-path="url(#b)"><path d="M167.79 316.238h34.519c-3-6.539-8.47-10.547-14.38-10.547h-12.218c-5.902 0-8.832 3.41-7.922 10.547m0 0" style="stroke:none;fill-rule:nonzero;fill:#263238;fill-opacity:1"/></g><g id="s" clip-path="url(#c)"><path d="M228.59 407.5h-7.48v-91.262h-8.212V407.5h-7.476l-8.063 7.46h39.29Zm0 0" style="stroke:none;fill-rule:nonzero;fill:#fff;fill-opacity:1"/></g><g id="u" clip-path="url(#d)"><path d="M212.898 316.238h8.211v3.063h-8.21Zm0 0" style="stroke:none;fill-rule:nonzero;fill:#407bff;fill-opacity:1"/></g><g id="w" clip-path="url(#e)"><path d="m272.578 383.441 8.98-2.27 1.02 10.36-9.008 1.957Zm0 0" style="stroke:none;fill-rule:nonzero;fill:#000;fill-opacity:1"/></g><g id="y" clip-path="url(#f)"><path d="M241.25 283.71s-2 15.161 4.91 26.849c3.73.386 7.43 1.054 11.059 2-.004 2.89.148 5.777.46 8.652 11.122-16.59 2.02-35.41-16.429-37.5m0 0" style="stroke:none;fill-rule:nonzero;fill:#000;fill-opacity:1"/></g><g id="A" clip-path="url(#g)"><path d="M237.422 385.172 246.59 384l-.86 12.45-9.14.71Zm0 0" style="stroke:none;fill-rule:nonzero;fill:#000;fill-opacity:1"/></g><g id="C" clip-path="url(#h)"><path d="M213 222.559c-1.54-1.38-5.898 4.812-8.57 12.48.761 2.86 1.62 5.68 2.492 8.3l12.93-2.679c-1.043-7.66-3.422-14.988-6.852-18.101m0 0" style="stroke:none;fill-rule:nonzero;fill:#000;fill-opacity:1"/></g><g id="E" clip-path="url(#i)"><path d="M172.578 210.672c-1.906 7-3.629 15.566-5 23.137a218 218 0 0 0-2.43 23.332c8.153-.813 17.153-10.192 20-22.82 2.852-12.321-3.757-25.141-12.57-23.65m0 0" style="stroke:none;fill-rule:nonzero;fill:#000;fill-opacity:1"/></g><g id="G" clip-path="url(#j)"><path d="m208.781 195.3-3.34-5.94-.23.492c-.297.738-.54 1.5-.723 2.277-.61 2.633 1.442 6.402 3.692 8.191l.261-.511a9.9 9.9 0 0 1 1.54-2.36.8.8 0 0 1 .14-.11Zm0 0" style="stroke:none;fill-rule:nonzero;fill:#000;fill-opacity:1"/></g><g id="I" clip-path="url(#k)"><path d="M196.328 172.898a10.78 10.78 0 0 1 2.352-8.476c-.82.187-3.39-1.32 1.34-4.48s14.55-4 19.44-1.59c9.58 4.699 6.93 10.257 6.93 10.257Zm0 0" style="stroke:none;fill-rule:nonzero;fill:#000;fill-opacity:1"/></g><g id="K" clip-path="url(#l)"><path d="M148.672 274.68h207.617v6.761H148.672Zm0 0" style="stroke:none;fill-rule:nonzero;fill:#fff;fill-opacity:1"/></g><g id="M" clip-path="url(#m)"><path d="M190.09 281.441h-41.43v-6.761h41.43Zm0 0" style="stroke:none;fill-rule:nonzero;fill:#407bff;fill-opacity:1"/></g><g id="O" clip-path="url(#n)"><path d="m244.27 228.148-11 41.243c-.13.347-.075.734.144 1.035.223.297.578.465.945.445l11.762-44.2a2.065 2.065 0 0 0-1.851 1.477m0 0" style="stroke:none;fill-rule:nonzero;fill:#000;fill-opacity:1"/></g><g id="Q" clip-path="url(#o)"><path d="M230.781 272.441h-28.55a2.25 2.25 0 0 0-2.243 2.239h33a2.244 2.244 0 0 0-2.207-2.239m0 0" style="stroke:none;fill-rule:nonzero;fill:#000;fill-opacity:1"/></g><g id="S" clip-path="url(#p)"><path d="M266.602 218.941a1.29 1.29 0 0 1-1.301-1.43l4.11-46.241a1.6 1.6 0 0 1 1.558-1.43h56.281a1.29 1.29 0 0 1 1.3 1.43l-4.109 46.242a1.6 1.6 0 0 1-1.562 1.43Zm0 0" style="stroke:none;fill-rule:nonzero;fill:#263238;fill-opacity:1"/></g><filter id="a" width="100%" height="100%" x="0%" y="0%" filterUnits="objectBoundingBox"><feColorMatrix in="SourceGraphic" values="0 0 0 0 1 0 0 0 0 1 0 0 0 0 1 0 0 0 1 0"/></filter></defs><path d="M443.89 416.238c0-6.25-86.808-11.316-193.89-11.316s-193.89 5.066-193.89 11.316c0 6.254 86.808 11.32 193.89 11.32s193.89-5.066 193.89-11.32m0 0" style="stroke:none;fill-rule:nonzero;fill:#f5f5f5;fill-opacity:1"/><path d="M182.309 316.238H268.5c-3-6.539-8.469-10.547-14.371-10.547h-67Zm0 0" style="stroke:none;fill-rule:nonzero;fill:#407bff;fill-opacity:1"/><path d="M167.79 316.238h34.519c-3-6.539-8.47-10.547-14.38-10.547h-12.218c-5.902 0-8.832 3.41-7.922 10.547m0 0" style="stroke:none;fill-rule:nonzero;fill:#407bff;fill-opacity:1"/><use xlink:href="#q" mask="url(#r)"/><path d="M228.59 407.5h-7.48v-91.262h-8.212V407.5h-7.476l-8.063 7.46h39.29Zm0 0" style="stroke:none;fill-rule:nonzero;fill:#407bff;fill-opacity:1"/><use xlink:href="#s" mask="url(#t)"/><use xlink:href="#u" mask="url(#v)"/><path d="m274.71 404.95 8.97-2.27-2.13-21.52-8.972 2.27Zm0 0" style="stroke:none;fill-rule:nonzero;fill:#b55b52;fill-opacity:1"/><path d="m284.07 398.71-10.3 1.29a.67.67 0 0 0-.45.234.64.64 0 0 0-.148.485l.547 8.21c.117.895.93 1.528 1.82 1.423 3.57-.524 5-.91 9.52-1.82a131 131 0 0 0 13-3.173c3.59-1.21 2.34-4.84.671-4.64-3.949.472-10.171 0-13-1.688a2.65 2.65 0 0 0-1.66-.32m0 0" style="stroke:none;fill-rule:nonzero;fill:#263238;fill-opacity:1"/><use xlink:href="#w" mask="url(#x)"/><path d="M214 275.54s66.469-2.231 66.691 24.28c.309 38.09 4.45 85.38 4.45 85.38l-16.743 2.48S257 342.29 257.211 312.55c-18.691-5.28-67.23-1.84-72.95-17.331-4.671-12.68-2.23-19.68-2.23-19.68Zm0 0" style="stroke:none;fill-rule:nonzero;fill:#263238;fill-opacity:1"/><use xlink:href="#y" mask="url(#z)"/><path d="m267.102 392.078 19.386-3.648.32-7.52-21.519 3.79ZM287.52 399.89c-.825.09-1.657.09-2.48 0a.23.23 0 0 1-.188-.152.22.22 0 0 1 .058-.218c.27-.239 2.64-2.348 3.809-2.06a.85.85 0 0 1 .582.54c.176.39.133.852-.121 1.2-.45.425-1.04.671-1.66.69m-1.942-.402c1.692.121 2.89-.09 3.262-.566a.78.78 0 0 0 .05-.781.37.37 0 0 0-.269-.27c-.621-.16-2.062.809-3.043 1.617m0 0" style="stroke:none;fill-rule:nonzero;fill:#407bff;fill-opacity:1"/><path d="M285.09 399.879H285a.21.21 0 0 1-.129-.16c0-.11-.57-2.719.238-3.73a1.11 1.11 0 0 1 .871-.419.826.826 0 0 1 .848.551c.344 1-.777 3.059-1.617 3.73Zm.77-3.879a.67.67 0 0 0-.438.25c-.48.602-.363 2.121-.223 3 .711-.781 1.43-2.352 1.211-3-.05-.121-.14-.262-.45-.262Zm0 0" style="stroke:none;fill-rule:nonzero;fill:#407bff;fill-opacity:1"/><path d="m235.922 406.93 9.168-1.168 1.5-21.762-9.168 1.16Zm0 0" style="stroke:none;fill-rule:nonzero;fill:#b55b52;fill-opacity:1"/><path d="m245.3 404.5-10.378-.328a.67.67 0 0 0-.711.61l-.762 8.198a1.64 1.64 0 0 0 1.57 1.692c3.61.047 5.34-.113 9.91 0 2.81.09 8.333.5 12.18 0 3.852-.5 3.262-4.281 1.59-4.422-4-.32-9.289-3.059-11.828-5.191-.45-.352-1-.551-1.57-.559m0 0" style="stroke:none;fill-rule:nonzero;fill:#263238;fill-opacity:1"/><path d="M248.52 406.21a11 11 0 0 1-2.45-.41.23.23 0 0 1-.16-.171.21.21 0 0 1 .102-.207c.297-.203 3-1.902 4.09-1.434a.84.84 0 0 1 .476.633c.117.414-.004.856-.308 1.16a2.53 2.53 0 0 1-1.75.43m-1.848-.698c1.637.379 2.86.367 3.308-.051a.76.76 0 0 0 .168-.762.37.37 0 0 0-.218-.308c-.602-.262-2.16.468-3.258 1.12m0 0" style="stroke:none;fill-rule:nonzero;fill:#407bff;fill-opacity:1"/><path d="M246.121 405.809a.15.15 0 0 1-.101 0 .2.2 0 0 1-.11-.168c0-.121-.129-2.782.828-3.653.25-.222.59-.324.922-.27.383.02.7.305.762.68.187 1-1.25 2.903-2.192 3.41a.18.18 0 0 1-.109 0m1.379-3.7a.63.63 0 0 0-.469.172c-.57.52-.703 2-.703 2.918.832-.66 1.793-2.09 1.672-2.758 0-.12-.09-.28-.398-.32Zm0 0" style="stroke:none;fill-rule:nonzero;fill:#407bff;fill-opacity:1"/><use xlink:href="#A" mask="url(#B)"/><path d="M191.39 275.54s66.372 6.28 64 26.26c-3.492 28.81-5.21 90.91-5.21 90.91l-16.918.669s-7.172-56-3.461-85.52c-17.172 0-59.223 1.23-63.063-9.12-3.379-9.137-2.168-23.2-2.168-23.2Zm0 0" style="stroke:none;fill-rule:nonzero;fill:#263238;fill-opacity:1"/><path d="m231.352 394.422 20.308-1.012.73-8.832-22.269 1.531Zm0 0" style="stroke:none;fill-rule:nonzero;fill:#407bff;fill-opacity:1"/><path d="m220.078 215.828.57 4.602c.204 1.558.422 3.12.66 4.672.5 3.109 1 6.207 1.633 9.25.63 3.039 1.309 6 2.13 8.898a44 44 0 0 0 3 7.852 14 14 0 0 0 1.73 2.66c.097.117.308.316.52.52.21.198.429.398.648.597.46.39 1 .793 1.511 1.18a47.5 47.5 0 0 0 7.54 4.27A164 164 0 0 0 257.559 267l-1.079 6.86a80 80 0 0 1-10.218-1c-1.684-.258-3.371-.579-5-1-1.633-.419-3.383-.801-5.063-1.31A50 50 0 0 1 226 266.423a30 30 0 0 1-2.55-1.582c-.419-.3-.84-.59-1.259-.942a15 15 0 0 1-1.312-1.109 25.4 25.4 0 0 1-4.117-5.187 53.4 53.4 0 0 1-4.621-10.211 101 101 0 0 1-2.852-10.082c-.758-3.348-1.43-6.7-1.918-10.059-.262-1.68-.492-3.36-.71-5a93 93 0 0 1-.52-5.16Zm0 0" style="stroke:none;fill-rule:nonzero;fill:#b55b52;fill-opacity:1"/><path d="M206.059 209.148c6.793-6.546 15.152-2.68 18.492 9.602a113.5 113.5 0 0 1 3.86 20.14l-21.49 4.438c-3.921-11.719-7.8-27.457-.862-34.18m0 0" style="stroke:none;fill-rule:nonzero;fill:#407bff;fill-opacity:1"/><use xlink:href="#C" mask="url(#D)"/><path d="m256.238 265.25 5.121.32-4.09 9.399s-8.828-.207-8.64-4.547l1.59-2.082a8.32 8.32 0 0 1 6.02-3.09M266.941 266.328l-4.421 8.64h-5.25l4.09-9.398Zm0 0" style="stroke:none;fill-rule:nonzero;fill:#b55b52;fill-opacity:1"/><path d="m206.86 202.578-10.301-2.937L183.32 199a9.19 9.19 0 0 0-9.16 6.328c-2.531 7.703-4.851 18.852-6.539 28.473-1.902 10.777-2.89 27-3.09 41.73H214c1.129-30.73 5-48.902 6.77-59a9.165 9.165 0 0 0-5.09-9.832Zm0 0" style="stroke:none;fill-rule:nonzero;fill:#407bff;fill-opacity:1"/><use xlink:href="#E" mask="url(#F)"/><path d="m200.672 182.91 4 6.11 5.45 8.332a8.1 8.1 0 0 0-1.68 2.457c-1 2-1.82 3.511 2.386 6.382a2.78 2.78 0 0 1 1.262 2.758c-.238 1.301-1.54 2.563-6.09 1.762a20.9 20.9 0 0 1-11.398-6.332c-1.524-1.508-1.172-2.649.289-4.219 4.109-4.441 5.37-11.531 5.78-17.25m0 0" style="stroke:none;fill-rule:nonzero;fill:#b55b52;fill-opacity:1"/><use xlink:href="#G" mask="url(#H)"/><path d="M207.25 218.82a.3.3 0 0 1-.258-.254.29.29 0 0 1 .188-.304l.71-.172c3.622-.79 12.098-2.64 11.329-35.18a.29.29 0 0 1 .281-.289c.156 0 .285.121.29.277.78 33-8 34.93-11.778 35.75-.25 0-.48.102-.684.16ZM227.57 173.852c-1.46-4.364-6.699-1.461-6.699-1.461s-.07 9.129 2.738 11.468c2.813 2.34 5.391-5.609 3.961-10.007m0 0" style="stroke:none;fill-rule:nonzero;fill:#263238;fill-opacity:1"/><path d="M202.078 172.09c-1.61 9.058-3 14.262.352 20.07a12 12 0 0 0 21.16-.61c3.832-7.472 5.808-21-2-27a12.1 12.1 0 0 0-11.922-1.84 12.1 12.1 0 0 0-7.59 9.38m0 0" style="stroke:none;fill-rule:nonzero;fill:#b55b52;fill-opacity:1"/><path d="M200.371 177.422c-2.441 3.879 3.649 5.297 3.649 5.297s7.289-5.489 7.44-9.14c.15-3.65-9.151.76-11.089 3.843m0 0" style="stroke:none;fill-rule:nonzero;fill:#263238;fill-opacity:1"/><path d="M198 178.879c-1.2-1-2.52-4.809-1.512-8.16 1.012-3.348 4.23-7 7.133-5.809 1.078-3.09 15.918-6.89 20.879 0 5.781 8.05 2.75 12.192-2.059 9.07l-8.8-2.851Zm0 0" style="stroke:none;fill-rule:nonzero;fill:#263238;fill-opacity:1"/><path d="M224.371 173.25c-2.351 2.781-11.262 2.148-11.262 2.148l2.922-3.199a9.77 9.77 0 0 1-6.761 1.871c-4.372-.25-2-4.742-2-4.742s21.52-1.328 17.101 3.922m0 0" style="stroke:none;fill-rule:nonzero;fill:#263238;fill-opacity:1"/><path d="M197.2 178.648c-.087 2 .562 3.961 1.831 5.512 1.66 2 4.219.399 4.82-2.058.528-2.211-.16-5.641-2.34-6.704-2.183-1.058-4.202.774-4.312 3.25m0 0" style="stroke:none;fill-rule:nonzero;fill:#b55b52;fill-opacity:1"/><path d="M196.328 172.898a10.78 10.78 0 0 1 2.352-8.476c-.82.187-3.39-1.32 1.34-4.48s14.55-4 19.44-1.59c9.58 4.699 6.93 10.257 6.93 10.257Zm0 0" style="stroke:none;fill-rule:nonzero;fill:#407bff;fill-opacity:1"/><use xlink:href="#I" mask="url(#J)"/><path d="M196.52 178.602c1.66.058 3.27-4.954 17.34-7.48 5.68-1 11.628.8 13.288 2.437 1.66 1.64.883-3.75.282-5.68-.602-1.93-9.39-3.469-15.102-2.777-9.906 1.187-15.86 6.238-16.68 7.507-.82 1.27-.648 5.95.872 5.993m0 0" style="stroke:none;fill-rule:nonzero;fill:#407bff;fill-opacity:1"/><path d="M201.7 180a1.73 1.73 0 0 1-.731 2.262c-.73.226-1.59-.39-1.918-1.403a1.725 1.725 0 0 1 .73-2.257c.73-.23 1.59.398 1.918 1.398m0 0" style="stroke:none;fill-rule:nonzero;fill:#263238;fill-opacity:1"/><path d="M202.879 274.54c-1.719 0-2.86-.462-3.488-1.411-1.54-2.3.43-7.05 2.52-12.078 2-4.7 4-9.57 3.44-12.91-1-6.371-.081-14.41.82-22.18.298-2.563.579-5 .79-7.32-3.871-4-7.77-9.13-5.723-19.692 1.364-7 1.063-12.8-.886-17.3a.26.26 0 0 1-.012-.215.27.27 0 0 1 .148-.153.29.29 0 0 1 .383.14c2 4.618 2.309 10.548.93 17.638-2 10.37 1.86 15.39 5.66 19.27a.33.33 0 0 1 .07.23c-.21 2.39-.492 4.863-.8 7.472-.891 7.73-1.82 15.73-.82 22 .558 3.5-1.49 8.438-3.481 13.219-1.989 4.781-3.942 9.5-2.57 11.55.519.778 1.511 1.16 3 1.16a.28.28 0 1 1 0 .56ZM215.89 180.469c-.23.71 0 1.422.41 1.59.41.171 1-.27 1.24-1 .241-.73.062-1.418-.4-1.59-.46-.168-1.019.293-1.25 1M225.012 182.371c-.465-.14-1.016.328-1.23 1.04-.216.714-.012 1.405.456 1.546.465.14 1.016-.324 1.23-1.039.212-.715.009-1.406-.456-1.547m0 0" style="stroke:none;fill-rule:nonzero;fill:#263238;fill-opacity:1"/><path d="M221.09 183a23.9 23.9 0 0 0 .738 6.27c-1.418.52-3-.711-3-.711Zm0 0" style="stroke:none;fill-rule:nonzero;fill:#a02724;fill-opacity:1"/><path d="M216.852 192.45a6.46 6.46 0 0 1-3.774-3.329.223.223 0 0 1 .121-.281.22.22 0 0 1 .29.12 6.14 6.14 0 0 0 4.292 3.302c.117.023.196.14.168.258a.22.22 0 0 1-.258.171 8 8 0 0 1-.84-.242M215.16 177.41a.431.431 0 0 1-.215-.48.4.4 0 0 1 .196-.27 4.21 4.21 0 0 1 3.93-.41c.156.059.265.2.28.367a.43.43 0 0 1-.199.414.44.44 0 0 1-.46.008 3.36 3.36 0 0 0-3.083.352.45.45 0 0 1-.449.02M225.371 178.8a.43.43 0 0 1 0-.222.44.44 0 0 1 .57-.238 4.2 4.2 0 0 1 2.57 3 .446.446 0 0 1-.37.445.446.446 0 0 1-.493-.305 3.35 3.35 0 0 0-2.046-2.34.41.41 0 0 1-.23-.34m0 0" style="stroke:none;fill-rule:nonzero;fill:#263238;fill-opacity:1"/><path d="M188 212.73c-.828 1.5-1.738 3.211-2.602 4.829a161 161 0 0 0-2.527 5c-1.652 3.332-3.2 6.68-4.61 10a77 77 0 0 0-3.46 10 31 31 0 0 0-.84 4.562c-.172 1.328.07 2.77 0 2.457a5.9 5.9 0 0 0 1.898 2 24 24 0 0 0 4 2.41 73 73 0 0 0 10 3.922C193.32 259 197 260 200.61 261s7.422 1.781 11.063 2.578l-.684 6.91A135.6 135.6 0 0 1 187.2 268a74.4 74.4 0 0 1-12-3.371 35.4 35.4 0 0 1-6.187-3.05 17.6 17.6 0 0 1-6.172-6.15 13 13 0 0 1-1.09-2.628l-.191-.692-.11-.539c-.09-.37-.14-.71-.199-1.07a25 25 0 0 1-.25-3.95c.05-2.323.316-4.636.79-6.91a77.5 77.5 0 0 1 3.562-12.152c1.43-3.84 3.058-7.539 4.808-11.16q1.32-2.718 2.73-5.367a100 100 0 0 1 3-5.332Zm0 0" style="stroke:none;fill-rule:nonzero;fill:#b55b52;fill-opacity:1"/><path d="M180.39 199.172c9.32-1.422 13.9 6.578 9.52 18.52a114 114 0 0 1-8.52 18.648l-20.09-8.809c3.598-11.82 9.528-26.91 19.09-28.36m0 0" style="stroke:none;fill-rule:nonzero;fill:#407bff;fill-opacity:1"/><path d="m212.48 263.66 5.579 1.91-7.41 7.078s-9.047-3.25-7.2-7.18l2.281-1.296a8.29 8.29 0 0 1 6.75-.512M224.629 269.328l-8.367 4.934-5.602-1.614 7.399-7.078Zm0 0" style="stroke:none;fill-rule:nonzero;fill:#b55b52;fill-opacity:1"/><path d="M148.672 274.68h207.617v6.761H148.672Zm0 0" style="stroke:none;fill-rule:nonzero;fill:#407bff;fill-opacity:1"/><use xlink:href="#K" mask="url(#L)"/><use xlink:href="#M" mask="url(#N)"/><path d="M300.059 272.441H202.23a2.25 2.25 0 0 0-2.242 2.239h102.32a2.25 2.25 0 0 0-2.25-2.239M313 226.672h-66.852a2.07 2.07 0 0 0-1.878 1.476l-11 41.243c-.13.347-.075.734.144 1.035.223.297.578.465.945.445h66.88a2 2 0 0 0 1.87-1.48l11-41.243a1.094 1.094 0 0 0-1.11-1.477m0 0" style="stroke:none;fill-rule:nonzero;fill:#407bff;fill-opacity:1"/><use xlink:href="#O" mask="url(#P)"/><use xlink:href="#Q" mask="url(#R)"/><path d="M191.559 416.238h4l-5.61-30.898h3.492v-4H189.2l-17.418-95.942h2.57v-4h-9.94v4H167l-17.422 95.942h-4.219v4h3.493l-5.614 30.898h4l5.614-30.898H186Zm-38-34.879 15.851-87.25 15.84 87.25ZM356.238 412.559h4l-5.61-27.22h3.493v-4h-4.223L336.48 285.4H339v-4h-9.941v4h2.57l-17.418 95.94H310v4h3.488l-5.61 27.22h4l5.61-27.22h33.14Zm-38-31.2 15.84-87.25 15.852 87.25Zm0 0" style="stroke:none;fill-rule:nonzero;fill:#407bff;fill-opacity:1"/><path d="M312.129 272.441h25.64a.73.73 0 0 1 .731.73v.778c0 .403-.328.73-.73.73h-25.641a.73.73 0 0 1-.73-.73v-.777a.73.73 0 0 1 .73-.73m0 0" style="stroke:none;fill-rule:nonzero;fill:#263238;fill-opacity:1"/><use xlink:href="#S" mask="url(#T)"/><path d="M314.078 184.23h-32.566l.11-1.199h32.57Zm0 0" style="stroke:none;fill-rule:nonzero;fill:#fff;fill-opacity:1"/><path d="M319.191 186.148h-34.5l.098-1.199h34.512ZM313.11 188.07h-28.59l.101-1.199h28.59ZM309.95 189.988h-25.598l.097-1.199h25.61Zm0 0" style="stroke:none;fill-rule:nonzero;fill:#407bff;fill-opacity:1"/><path d="M301.89 193.121h-21.16l.098-1.21h21.16Zm0 0" style="stroke:none;fill-rule:nonzero;fill:#fff;fill-opacity:1"/><path d="M306.379 197.672H283.66l-.101 1.207h22.71ZM302.66 195.75h-18.832l-.098 1.21h18.82ZM304.738 193.828H284l-.102 1.211h20.73Zm0 0" style="stroke:none;fill-rule:nonzero;fill:#407bff;fill-opacity:1"/><path d="M300.578 207.762h-21.156l.11-1.203h21.16Zm0 0" style="stroke:none;fill-rule:nonzero;fill:#fff;fill-opacity:1"/><path d="M305.078 212.32H282.36l-.109 1.2h22.719ZM301.36 210.398H282.53l-.101 1.204h18.82ZM303.441 208.48H282.7l-.097 1.2h20.726Zm0 0" style="stroke:none;fill-rule:nonzero;fill:#407bff;fill-opacity:1"/><path d="M292.04 175.281h-17.18l.1-1.21h17.188ZM295.621 179.828h-18.45l-.112 1.211h18.453ZM292.621 177.91H277.34l-.11 1.211h15.29ZM294.34 175.988h-16.828l-.114 1.211h16.84Zm0 0" style="stroke:none;fill-rule:nonzero;fill:#fff;fill-opacity:1"/><path d="M305.871 203.43h-22.723l-.109 1.21h22.723ZM302.148 201.512H283.32l-.11 1.207h18.83ZM304.23 199.59h-20.742l-.097 1.21h20.73ZM345.719 163.422H308.21a2.339 2.339 0 0 1-2.36-2.594l2.82-31.707a2.785 2.785 0 0 1 2.727-2.5h37.5a2.33 2.33 0 0 1 1.766.762c.45.496.668 1.16.598 1.828l-2.82 31.71a2.784 2.784 0 0 1-2.723 2.5m-34.32-35.8c-.895.019-1.637.698-1.739 1.589l-2.808 31.71c-.051.388.074.778.34 1.067.257.278.62.434 1 .434h37.507a1.784 1.784 0 0 0 1.73-1.594l2.821-31.707a1.4 1.4 0 0 0-.352-1.062 1.36 1.36 0 0 0-1-.438Zm0 0" style="stroke:none;fill-rule:nonzero;fill:#407bff;fill-opacity:1"/><path d="M350.2 136.07h-41.598a.5.5 0 0 1-.5-.5c0-.277.222-.5.5-.5h41.597c.278 0 .5.223.5.5a.51.51 0 0 1-.5.5m0 0" style="stroke:none;fill-rule:nonzero;fill:#407bff;fill-opacity:1"/><path d="M316 163.422h-.05a.5.5 0 0 1-.34-.176.5.5 0 0 1-.11-.367l2.43-27.36a.51.51 0 0 1 .539-.449.5.5 0 0 1 .344.176c.085.098.128.23.117.363L316.488 163a.51.51 0 0 1-.488.422M345.32 139.32h-22.582a.501.501 0 0 1 0-1h22.582c.278 0 .5.223.5.5 0 .278-.222.5-.5.5M341.781 143.309H322.38a.51.51 0 0 1-.5-.5c0-.274.226-.5.5-.5h19.402a.501.501 0 0 1 0 1M333.309 147.422H322a.501.501 0 0 1 0-1h11.29a.506.506 0 0 1 .5.5c0 .266-.212.488-.481.5M335.09 155.45H321.3a.5.5 0 0 1-.5-.5.51.51 0 0 1 .5-.5h13.79a.51.51 0 0 1 .5.5c0 .277-.223.5-.5.5M332.23 159.57h-11.289a.5.5 0 0 1-.5-.5c0-.277.223-.5.5-.5h11.29c.277 0 .5.223.5.5 0 .278-.223.5-.5.5M338.84 159.57h-3.621a.501.501 0 0 1 0-1h3.62c.278 0 .5.223.5.5 0 .278-.222.5-.5.5M342.809 151.41H321.66a.5.5 0 0 1-.5-.5c0-.277.223-.5.5-.5h21.149c.277 0 .5.223.5.5 0 .278-.223.5-.5.5m0 0" style="stroke:none;fill-rule:nonzero;fill:#407bff;fill-opacity:1"/><path d="M268.14 160.309a.497.497 0 0 1-.36-.848l2.501-2.5-2.5-2.492a.493.493 0 0 1 0-.707c.196-.2.512-.2.707 0l2.852 2.847c.191.2.191.512 0 .711l-2.852 2.84a.48.48 0 0 1-.347.149M259.602 160.309a.5.5 0 0 1-.352-.149l-2.852-2.84a.51.51 0 0 1 0-.71l2.852-2.848c.195-.2.516-.2.71 0a.5.5 0 0 1 0 .707l-2.5 2.492 2.5 2.5a.497.497 0 0 1-.358.848M262.8 160.309a.4.4 0 0 1-.171 0 .5.5 0 0 1-.29-.637l2.13-5.703a.502.502 0 0 1 .941.351l-2.14 5.7a.49.49 0 0 1-.47.289m0 0" style="stroke:none;fill-rule:nonzero;fill:#263238;fill-opacity:1"/><path d="M331.93 234.102a.49.49 0 0 1-.352-.153.5.5 0 0 1-.144-.355c0-.133.05-.262.144-.356l2.492-2.488-2.492-2.5a.495.495 0 1 1 .703-.7l2.848 2.84a.55.55 0 0 1 .152.36.52.52 0 0 1-.152.352L332.28 234a.5.5 0 0 1-.351.102M323.39 234.102A.52.52 0 0 1 323 234l-2.852-2.852a.507.507 0 0 1 0-.707l2.852-2.84a.5.5 0 0 1 .355-.148.497.497 0 0 1 .355.848l-2.5 2.5 2.5 2.488c.192.2.192.512 0 .711a.5.5 0 0 1-.32.102M326.602 234.102a.5.5 0 0 1-.18 0 .5.5 0 0 1-.281-.262.5.5 0 0 1-.012-.38l2.133-5.698a.5.5 0 0 1 .644-.297c.258.097.39.387.293.644l-2.14 5.7a.49.49 0 0 1-.457.293M309.352 120.7a.53.53 0 0 1-.364-.15.505.505 0 0 1 0-.698l2.5-2.5-2.5-2.493a.505.505 0 0 1 0-.71.505.505 0 0 1 .711 0l2.852 2.851c.191.2.191.512 0 .71l-2.852 2.84a.5.5 0 0 1-.347.15M300.809 120.7a.5.5 0 0 1-.348-.15l-2.852-2.84a.51.51 0 0 1 0-.71l2.852-2.852a.505.505 0 0 1 .71 0c.196.2.196.516 0 .711l-2.5 2.493 2.5 2.5a.505.505 0 0 1 0 .699.53.53 0 0 1-.362.148M304 120.7h-.172a.5.5 0 0 1-.289-.641l2.133-5.7a.5.5 0 0 1 .637-.289.5.5 0 0 1 .3.64l-2.14 5.7a.48.48 0 0 1-.469.29m0 0" style="stroke:none;fill-rule:nonzero;fill:#407bff;fill-opacity:1"/></svg>
